<?xml version="1.0" encoding="UTF-8"?>
<svg version="1.1" xmlns="http://www.w3.org/2000/svg" width="180" height="180">
<path d="M0 0 C59.4 0 118.8 0 180 0 C180 59.4 180 118.8 180 180 C120.6 180 61.2 180 0 180 C0 120.6 0 61.2 0 0 Z " fill="#0383FE" transform="translate(0,0)"/>
<path d="M0 0 C59.4 0 118.8 0 180 0 C180 11.22 180 22.44 180 34 C153.30928531 36.28369751 153.30928531 36.28369751 144.35546875 35.77734375 C141.3833058 36.05829448 140.15461984 36.97267718 138 39 C135.77034599 42.74263352 135 44.58491353 135 49 C134.01 49.99 134.01 49.99 133 51 C133.44730469 51.60585938 133.89460937 52.21171875 134.35546875 52.8359375 C145.46026598 68.22638142 147.36366624 80.45302162 147 99 C146.01 99.495 146.01 99.495 145 100 C144.92652344 98.82630859 144.92652344 98.82630859 144.8515625 97.62890625 C144.73941406 96.11103516 144.73941406 96.11103516 144.625 94.5625 C144.52058594 93.04849609 144.52058594 93.04849609 144.4140625 91.50390625 C144.27742187 90.67761719 144.14078125 89.85132812 144 89 C143.34 88.67 142.68 88.34 142 88 C141.8453125 89.1446875 141.8453125 89.1446875 141.6875 90.3125 C140.95635961 93.17059424 140.23048087 94.15742885 138 96 C137.5978125 94.3603125 137.5978125 94.3603125 137.1875 92.6875 C136.08641352 89.26833673 135.57525074 88.22408019 133 86 C133 85.34 133 84.68 133 84 C131.02 84 129.04 84 127 84 C127.66 85.32 128.32 86.64 129 88 C126.36313727 91.61347855 124.06794982 94.06772383 120 96 C118.68 96 117.36 96 116 96 C116 96.66 116 97.32 116 98 C117.65 98 119.3 98 121 98 C120.68766365 101.23491223 120.36931503 102.65057117 117.96875 104.921875 C117.1540625 105.52515625 116.339375 106.1284375 115.5 106.75 C112.07240193 109.51742363 112.07240193 109.51742363 110.32421875 113.41015625 C110.23546177 114.9697431 110.18011073 116.53172203 110.1640625 118.09375 C110 120 110 120 108.0625 121.8125 C107.381875 122.204375 106.70125 122.59625 106 123 C104.7483533 125.08334635 104.7483533 125.08334635 104 127 C103.34 127 102.68 127 102 127 C101.71125 127.61875 101.4225 128.2375 101.125 128.875 C100 131 100 131 98 133 C94.875 133.125 94.875 133.125 92 133 C89.43682558 126.87813253 87.47914746 121.66643717 88.0546875 114.97265625 C88.14376996 112.9368462 88.14376996 112.9368462 87.0078125 111.12109375 C85.6855194 108.33812803 85.86176992 106.04106177 86 103 C84.99839844 103.08121094 83.99679688 103.16242188 82.96484375 103.24609375 C70.87043606 103.94136659 70.87043606 103.94136659 66.5625 100.125 C63.63677401 96.40751827 63.15988033 93.0233021 63.5 88.375 C64.234211 84.88749776 65.63653754 82.63357245 68 80 C68.99 79.67 69.98 79.34 71 79 C71.33 77.35 71.66 75.7 72 74 C72.66 74 73.32 74 74 74 C74 73.34 74 72.68 74 72 C73.34 72 72.68 72 72 72 C72.33 69.69 72.66 67.38 73 65 C74.98 65.33 76.96 65.66 79 66 C79 64.68 79 63.36 79 62 C78.34 62 77.68 62 77 62 C77 60.68 77 59.36 77 58 C75.515 57.505 75.515 57.505 74 57 C74.66 56.01 75.32 55.02 76 54 C76.66 54 77.32 54 78 54 C78.103125 53.443125 78.20625 52.88625 78.3125 52.3125 C79.14704296 49.50540095 80.31772698 47.39400391 82 45 C82.99 44.67 83.98 44.34 85 44 C85 43.01 85 42.02 85 41 C81.535 41.495 81.535 41.495 78 42 C78 43.32 78 44.64 78 46 C76.02 46 74.04 46 72 46 C72 45.34 72 44.68 72 44 C68.04800013 45.16763633 65.2274473 46.46414855 62 49 C61.34 49 60.68 49 60 49 C60.54226981 45.20411134 62.20127563 43.52788007 65 41 C64.44570312 41.433125 63.89140625 41.86625 63.3203125 42.3125 C62.23363281 43.1478125 62.23363281 43.1478125 61.125 44 C60.40570313 44.556875 59.68640625 45.11375 58.9453125 45.6875 C57 47 57 47 55 47 C53.43370292 50.01970788 52.12374836 53.08650414 50.875 56.25 C50.52179687 57.14203125 50.16859375 58.0340625 49.8046875 58.953125 C49.53914063 59.62859375 49.27359375 60.3040625 49 61 C48.01 60.505 48.01 60.505 47 60 C46.34 60.99 45.68 61.98 45 63 C44.01 63 43.02 63 42 63 C41.34 64.32 40.68 65.64 40 67 C39.67 66.34 39.34 65.68 39 65 C41.90750765 57.81000571 47.13290393 52.48918348 52.7722168 47.37548828 C53.27406494 46.90739746 53.77591309 46.43930664 54.29296875 45.95703125 C54.7418042 45.55460205 55.19063965 45.15217285 55.65307617 44.73754883 C57.71741846 42.07452108 58.74682345 39.12179129 60 36 C54.67977231 35.97523349 49.35957838 35.95710844 44.03930664 35.94506836 C42.23038142 35.94004762 40.42146024 35.93322971 38.61254883 35.92456055 C36.00861614 35.91239598 33.40473723 35.90674902 30.80078125 35.90234375 C29.99538406 35.89718246 29.18998688 35.89202118 28.36018372 35.88670349 C24.41137386 35.88631126 20.87229431 36.14540311 17 37 C15 36.66666667 13 36.33333333 11 36 C7.37 36 3.74 36 0 36 C0 24.12 0 12.24 0 0 Z " fill="#37CBFD" transform="translate(0,0)"/>
<path d="M0 0 C2.71496526 0.0754157 4.42419035 0.46632277 6.44140625 2.3359375 C10 6.49269943 10 6.49269943 10 9 C10.66 9 11.32 9 12 9 C12 10.32 12 11.64 12 13 C15.63 10.03 19.26 7.06 23 4 C23.495 4.99 23.495 4.99 24 6 C21.34812425 10.22335768 18.54233068 13.45766932 15 17 C14.505 18.485 14.505 18.485 14 20 C14.83144531 19.97679688 15.66289063 19.95359375 16.51953125 19.9296875 C17.60621094 19.91164063 18.69289062 19.89359375 19.8125 19.875 C20.89144531 19.85179688 21.97039062 19.82859375 23.08203125 19.8046875 C26 20 26 20 29 22 C29 22.66 29 23.32 29 24 C27.948125 24.2475 27.948125 24.2475 26.875 24.5 C22.68640933 26.68535165 20.60769051 30.14671162 18 34 C19.09054688 34.37898438 19.09054688 34.37898438 20.203125 34.765625 C30.98435827 39.52382293 38.55115239 51.22030441 43.19140625 61.6875 C45.69714906 68.85368234 46.14055495 75.845699 46.0625 83.375 C46.05798828 84.20644531 46.05347656 85.03789063 46.04882812 85.89453125 C46.03713164 87.92971897 46.01919935 89.96486923 46 92 C45.01 92.495 45.01 92.495 44 93 C43.92652344 91.82630859 43.92652344 91.82630859 43.8515625 90.62890625 C43.73941406 89.11103516 43.73941406 89.11103516 43.625 87.5625 C43.52058594 86.04849609 43.52058594 86.04849609 43.4140625 84.50390625 C43.20910156 83.26447266 43.20910156 83.26447266 43 82 C42.34 81.67 41.68 81.34 41 81 C40.896875 81.763125 40.79375 82.52625 40.6875 83.3125 C39.95635961 86.17059424 39.23048087 87.15742885 37 89 C36.5978125 87.3603125 36.5978125 87.3603125 36.1875 85.6875 C35.08641352 82.26833673 34.57525074 81.22408019 32 79 C32 78.34 32 77.68 32 77 C30.02 77 28.04 77 26 77 C26.66 78.32 27.32 79.64 28 81 C25.36313727 84.61347855 23.06794982 87.06772383 19 89 C17.68 89 16.36 89 15 89 C15 89.66 15 90.32 15 91 C16.65 91 18.3 91 20 91 C19.68766365 94.23491223 19.36931503 95.65057117 16.96875 97.921875 C16.1540625 98.52515625 15.339375 99.1284375 14.5 99.75 C11.07240193 102.51742363 11.07240193 102.51742363 9.32421875 106.41015625 C9.23546177 107.9697431 9.18011073 109.53172203 9.1640625 111.09375 C9 113 9 113 7.0625 114.8125 C6.0415625 115.4003125 6.0415625 115.4003125 5 116 C3.7483533 118.08334635 3.7483533 118.08334635 3 120 C2.34 120 1.68 120 1 120 C0.71125 120.61875 0.4225 121.2375 0.125 121.875 C-1 124 -1 124 -3 126 C-6.125 126.125 -6.125 126.125 -9 126 C-11.56317442 119.87813253 -13.52085254 114.66643717 -12.9453125 107.97265625 C-12.85623004 105.9368462 -12.85623004 105.9368462 -13.9921875 104.12109375 C-15.3144806 101.33812803 -15.13823008 99.04106177 -15 96 C-16.00160156 96.08121094 -17.00320312 96.16242188 -18.03515625 96.24609375 C-30.12956394 96.94136659 -30.12956394 96.94136659 -34.4375 93.125 C-37.36322599 89.40751827 -37.84011967 86.0233021 -37.5 81.375 C-36.765789 77.88749776 -35.36346246 75.63357245 -33 73 C-31.515 72.505 -31.515 72.505 -30 72 C-29.67 70.35 -29.34 68.7 -29 67 C-28.34 67 -27.68 67 -27 67 C-27 66.34 -27 65.68 -27 65 C-27.66 65 -28.32 65 -29 65 C-28.67 62.69 -28.34 60.38 -28 58 C-26.02 58.33 -24.04 58.66 -22 59 C-22 57.68 -22 56.36 -22 55 C-22.66 55 -23.32 55 -24 55 C-24 53.68 -24 52.36 -24 51 C-25.485 50.505 -25.485 50.505 -27 50 C-26.34 49.01 -25.68 48.02 -25 47 C-24.34 47 -23.68 47 -23 47 C-22.896875 46.443125 -22.79375 45.88625 -22.6875 45.3125 C-21.85295704 42.50540095 -20.68227302 40.39400391 -19 38 C-17.515 37.505 -17.515 37.505 -16 37 C-16 36.01 -16 35.02 -16 34 C-19.465 34.495 -19.465 34.495 -23 35 C-23 36.32 -23 37.64 -23 39 C-24.98 39 -26.96 39 -29 39 C-29 38.34 -29 37.68 -29 37 C-32.95199987 38.16763633 -35.7725527 39.46414855 -39 42 C-39.66 42 -40.32 42 -41 42 C-40.63543213 39.20086028 -40.12294737 38.12045351 -38.07421875 36.11328125 C-37.28660156 35.51902344 -36.49898438 34.92476562 -35.6875 34.3125 C-34.90761719 33.71050781 -34.12773438 33.10851563 -33.32421875 32.48828125 C-31.13892149 31.08895645 -29.53363598 30.43483455 -27 30 C-27 29.34 -27 28.68 -27 28 C-23.7 27.01 -20.4 26.02 -17 25 C-25.58 24.34 -34.16 23.68 -43 23 C-43 22.67 -43 22.34 -43 22 C-42.43603516 21.98018066 -41.87207031 21.96036133 -41.29101562 21.93994141 C-38.69360426 21.84368189 -36.09688897 21.73441948 -33.5 21.625 C-32.1696875 21.57859375 -32.1696875 21.57859375 -30.8125 21.53125 C-25.27906253 21.28712776 -20.28134753 20.72102143 -15 19 C-12.58967433 16.25952141 -12.58967433 16.25952141 -11 13 C-7.59533074 7.14396887 -7.59533074 7.14396887 -5 5 C-4.34 5 -3.68 5 -3 5 C-2.690625 4.360625 -2.38125 3.72125 -2.0625 3.0625 C-1 1 -1 1 0 0 Z " fill="#CAE0F6" transform="translate(101,7)"/>
<path d="M0 0 C0.495 1.485 0.495 1.485 1 3 C1.66 3 2.32 3 3 3 C3 3.99 3 4.98 3 6 C2.401875 6.4125 1.80375 6.825 1.1875 7.25 C-1.82314267 9.65851414 -2.55233997 12.47526254 -4 16 C-5.6875 17.9375 -5.6875 17.9375 -7 19 C-6.34 19.33 -5.68 19.66 -5 20 C-5 21.32 -5 22.64 -5 24 C-4.34 24 -3.68 24 -3 24 C-3 25.32 -3 26.64 -3 28 C-4.98 27.67 -6.96 27.34 -9 27 C-9.33 29.31 -9.66 31.62 -10 34 C-9.34 34 -8.68 34 -8 34 C-8 34.66 -8 35.32 -8 36 C-8.66 36 -9.32 36 -10 36 C-10.061875 36.721875 -10.12375 37.44375 -10.1875 38.1875 C-11.24371275 41.84362105 -13.3074028 43.37471773 -16 46 C-16.93391003 47.81656815 -16.93391003 47.81656815 -17 50 C-17.144375 51.27875 -17.28875 52.5575 -17.4375 53.875 C-17.36460174 57.11897238 -16.76025032 58.98649242 -14.6875 61.5 C-11.68459285 64.15889869 -9.32407653 64.33893291 -5.375 64.3125 C-4.45460937 64.24675781 -3.53421875 64.18101563 -2.5859375 64.11328125 C-0.12511428 64.00548084 1.66539832 64.27112201 4 65 C5.31698071 70.00452669 6.33364778 74.85956857 7 80 C7.76939722 85.05603887 8.85953113 90.01736904 10 95 C15.50279932 93.81312172 18.27934926 92.46478089 22 88 C22.68177416 86.67432801 23.35191436 85.34246312 24 84 C24.99 83.34 25.98 82.68 27 82 C27.31973833 80.03004817 27.31973833 80.03004817 27.25 77.8125 C27.61946615 72.82470701 29.54353379 70.73824896 33.2109375 67.5078125 C33.80132812 67.01023437 34.39171875 66.51265625 35 66 C37.32888773 63.88978717 37.96897041 63.09308878 39 60 C37.35 60 35.7 60 34 60 C34 59.34 34 58.68 34 58 C35.051875 57.608125 36.10375 57.21625 37.1875 56.8125 C40.91658932 55.23597443 43.29663487 53.03104575 46 50 C45.01 47.525 45.01 47.525 44 45 C46.31 45.33 48.62 45.66 51 46 C51.103125 46.639375 51.20625 47.27875 51.3125 47.9375 C51.539375 48.618125 51.76625 49.29875 52 50 C53.485 50.495 53.485 50.495 55 51 C55.495 53.97 55.495 53.97 56 57 C57.89213369 54.61426621 59.02391783 52.92824652 60 50 C61.485 50.495 61.485 50.495 63 51 C63.495 57.93 63.495 57.93 64 65 C63.01 65 62.02 65 61 65 C61.00902344 65.82242188 61.01804687 66.64484375 61.02734375 67.4921875 C60.79534419 76.22747532 59.03944552 81.62502973 53 88 C42.5013735 97.35142559 42.5013735 97.35142559 36 97 C35.505 98.485 35.505 98.485 35 100 C32.69 100 30.38 100 28 100 C27.505 101.485 27.505 101.485 27 103 C22.88658426 106.19144325 18.62907604 106.8870228 13.625 107.6875 C12.53058594 107.88182617 12.53058594 107.88182617 11.4140625 108.08007812 C5.01129779 109.16054467 -0.95246262 109.61834872 -7.25 107.6875 C-8.08015625 107.44386719 -8.9103125 107.20023437 -9.765625 106.94921875 C-12.15895563 105.93247165 -13.23204041 104.86617957 -15 103 C-16.44673351 102.1059512 -17.906158 101.23224226 -19.375 100.375 C-24.29161978 97.18280641 -26.84591134 93.41228306 -29 88 C-29 87.34 -29 86.68 -29 86 C-28.34 86 -27.68 86 -27 86 C-27.13277344 85.40832031 -27.26554687 84.81664063 -27.40234375 84.20703125 C-27.66724609 83.02173828 -27.66724609 83.02173828 -27.9375 81.8125 C-28.12957031 80.98878906 -28.32164063 80.16507812 -28.51953125 79.31640625 C-29 77 -29 77 -29.125 74.25 C-30.42406279 70.90955282 -32.97071946 70.04030782 -36.0078125 68.31640625 C-38.87918019 66.41905152 -40.23889091 63.91493919 -42 61 C-43.6292274 59.29671681 -45.28641357 57.61838719 -47 56 C-47.99 56.495 -47.99 56.495 -49 57 C-49 53.37 -49 49.74 -49 46 C-48.67 47.32 -48.34 48.64 -48 50 C-47.01 49.505 -47.01 49.505 -46 49 C-46.350625 48.34 -46.70125 47.68 -47.0625 47 C-48.32853409 42.9486909 -47.70614482 40.16625445 -47 36 C-46.34 36 -45.68 36 -45 36 C-44.731875 34.9275 -44.46375 33.855 -44.1875 32.75 C-43.1300568 29.41070569 -42.389443 27.48502072 -40 25 C-39.01 24.67 -38.02 24.34 -37 24 C-36.34 23.01 -35.68 22.02 -35 21 C-34.34 21.33 -33.68 21.66 -33 22 C-32.76925781 21.33613281 -32.53851563 20.67226563 -32.30078125 19.98828125 C-28.93748551 10.88212481 -23.70718329 6.56523657 -16 1 C-15.34 1.33 -14.68 1.66 -14 2 C-14.49371094 2.39832031 -14.98742187 2.79664063 -15.49609375 3.20703125 C-16.45708984 4.00173828 -16.45708984 4.00173828 -17.4375 4.8125 C-18.07558594 5.33457031 -18.71367188 5.85664062 -19.37109375 6.39453125 C-21.2548275 8.00834411 -21.2548275 8.00834411 -22 11 C-21.32904297 10.45859375 -21.32904297 10.45859375 -20.64453125 9.90625 C-15.64493997 6.06861063 -15.64493997 6.06861063 -12.0625 5.6875 C-11.381875 5.790625 -10.70125 5.89375 -10 6 C-10 6.66 -10 7.32 -10 8 C-8.02 8 -6.04 8 -4 8 C-4.495 6.02 -4.495 6.02 -5 4 C-4.0409375 3.8453125 -4.0409375 3.8453125 -3.0625 3.6875 C-2.381875 3.460625 -1.70125 3.23375 -1 3 C-0.67 2.01 -0.34 1.02 0 0 Z " fill="#0D45DA" transform="translate(82,38)"/>
<path d="M0 0 C0.33 0.99 0.66 1.98 1 3 C4.15086048 5.10057366 4.70448258 5.21746143 8.25 5.0625 C12.3059063 4.96292783 16.0043541 5.31989006 20 6 C20.0825 6.804375 20.165 7.60875 20.25 8.4375 C21.43977257 14.08891973 23.74344656 20.9137087 28 25 C30.59855733 25.8042208 30.59855733 25.8042208 33 26 C32.68766365 29.23491223 32.36931503 30.65057117 29.96875 32.921875 C29.1540625 33.52515625 28.339375 34.1284375 27.5 34.75 C24.07240193 37.51742363 24.07240193 37.51742363 22.32421875 41.41015625 C22.23546177 42.9697431 22.18011073 44.53172203 22.1640625 46.09375 C22 48 22 48 20.0625 49.8125 C19.0415625 50.4003125 19.0415625 50.4003125 18 51 C16.7483533 53.08334635 16.7483533 53.08334635 16 55 C15.34 55 14.68 55 14 55 C13.566875 55.928125 13.566875 55.928125 13.125 56.875 C12 59 12 59 10 61 C6.875 61.125 6.875 61.125 4 61 C1.43682558 54.87813253 -0.52085254 49.66643717 0.0546875 42.97265625 C0.14376996 40.9368462 0.14376996 40.9368462 -0.9921875 39.12109375 C-2.3144806 36.33812803 -2.13823008 34.04106177 -2 31 C-3.50240234 31.12181641 -3.50240234 31.12181641 -5.03515625 31.24609375 C-17.12956394 31.94136659 -17.12956394 31.94136659 -21.4375 28.125 C-24.36322599 24.40751827 -24.84011967 21.0233021 -24.5 16.375 C-23.765789 12.88749776 -22.36346246 10.63357245 -20 8 C-19.01 7.67 -18.02 7.34 -17 7 C-16.67 5.35 -16.34 3.7 -16 2 C-10.51324804 0.13216954 -5.77807024 -0.2358396 0 0 Z " fill="#F0F5F8" transform="translate(88,72)"/>
<path d="M0 0 C1.83776936 0.05022556 3.67567081 0.09584158 5.51367188 0.13671875 C9.99422656 0.2377687 14.45628233 0.43322178 18.9375 0.625 C18.9375 9.865 18.9375 19.105 18.9375 28.625 C10.78118865 28.69471206 2.86299817 28.72665705 -5.24609375 27.84765625 C-10.83977009 27.40543773 -16.45562477 27.55133303 -22.0625 27.625 C-22.64476109 24.96260004 -23.07488901 22.79431651 -22.875 20.0625 C-22.8350476 17.4251156 -22.8350476 17.4251156 -25.0625 15.3125 C-25.7225 14.755625 -26.3825 14.19875 -27.0625 13.625 C-28.0525 14.285 -29.0425 14.945 -30.0625 15.625 C-29.31552345 10.09575641 -27.06605547 6.75288691 -23.28955078 2.71972656 C-16.41093517 -1.74528493 -7.89693512 -0.37553841 0 0 Z " fill="#11AAFE" transform="translate(161.0625,-0.625)"/>
<path d="M0 0 C2.71496526 0.0754157 4.42419035 0.46632277 6.44140625 2.3359375 C10 6.49269943 10 6.49269943 10 9 C10.66 9 11.32 9 12 9 C12 10.32 12 11.64 12 13 C15.63 10.03 19.26 7.06 23 4 C23.495 4.99 23.495 4.99 24 6 C21.34812425 10.22335768 18.54233068 13.45766932 15 17 C14.505 18.485 14.505 18.485 14 20 C14.83144531 19.97679688 15.66289063 19.95359375 16.51953125 19.9296875 C17.60621094 19.91164063 18.69289062 19.89359375 19.8125 19.875 C20.89144531 19.85179688 21.97039062 19.82859375 23.08203125 19.8046875 C26 20 26 20 29 22 C29 22.66 29 23.32 29 24 C27.948125 24.2475 27.948125 24.2475 26.875 24.5 C22.68640933 26.68535165 20.60769051 30.14671162 18 34 C18.72445312 34.24878906 19.44890625 34.49757812 20.1953125 34.75390625 C29.12962831 38.72333068 35.75406325 47.42377014 40 56 C40 56.99 40 57.98 40 59 C35.51578931 57.74859237 32.31613466 56.31613466 29 53 C28.1875 50.25 28.1875 50.25 28 48 C27.26910156 48.24492188 26.53820312 48.48984375 25.78515625 48.7421875 C23 49 23 49 20.68359375 47.3828125 C19.94238281 46.63773438 19.20117188 45.89265625 18.4375 45.125 C15.61804469 42.32020391 13.92113518 40.72737476 10 40 C8.25 38.4375 8.25 38.4375 7 37 C7.99 36.01 8.98 35.02 10 34 C9.67 33.01 9.34 32.02 9 31 C8.01 31 7.02 31 6 31 C6 31.66 6 32.32 6 33 C6.66 33.33 7.32 33.66 8 34 C6.0625 33.625 6.0625 33.625 4 33 C3.67 32.34 3.34 31.68 3 31 C1.02 31 -0.96 31 -3 31 C-3 30.34 -3 29.68 -3 29 C-3.66 28.67 -4.32 28.34 -5 28 C-5 27.34 -5 26.68 -5 26 C-9.28659233 25.27688184 -13.57790359 24.59521884 -17.875 23.9375 C-19.60363281 23.67259766 -19.60363281 23.67259766 -21.3671875 23.40234375 C-22.23601562 23.26957031 -23.10484375 23.13679688 -24 23 C-23.67 22.34 -23.34 21.68 -23 21 C-21.741875 20.7525 -20.48375 20.505 -19.1875 20.25 C-15.66508219 19.45116596 -15.12552476 19.15266525 -12.6875 16.1875 C-12.130625 15.135625 -11.57375 14.08375 -11 13 C-7.59533074 7.14396887 -7.59533074 7.14396887 -5 5 C-4.34 5 -3.68 5 -3 5 C-2.690625 4.360625 -2.38125 3.72125 -2.0625 3.0625 C-1 1 -1 1 0 0 Z M5 36 C5.66 36.66 6.32 37.32 7 38 C6.01 38.495 6.01 38.495 5 39 C5 38.01 5 37.02 5 36 Z " fill="#DFEEFB" transform="translate(101,7)"/>
<path d="M0 0 C0.98291016 0.00644531 1.96582031 0.01289063 2.97851562 0.01953125 C4.00267578 0.03628906 5.02683594 0.05304687 6.08203125 0.0703125 C7.11779297 0.07933594 8.15355469 0.08835937 9.22070312 0.09765625 C11.7788781 0.1212339 14.33658873 0.1541422 16.89453125 0.1953125 C16.56453125 1.5153125 16.23453125 2.8353125 15.89453125 4.1953125 C16.94954834 4.27571777 18.00456543 4.35612305 19.09155273 4.43896484 C22.99289488 4.73880594 26.89315784 5.05107977 30.79321289 5.3671875 C32.48369827 5.50243934 34.17445975 5.63428414 35.86547852 5.76269531 C38.29132887 5.94749493 40.71593352 6.14438868 43.140625 6.34375 C43.90104599 6.39904877 44.66146698 6.45434753 45.44493103 6.51132202 C47.26906019 6.66729952 49.08427944 6.92188144 50.89453125 7.1953125 C51.38953125 8.1853125 51.38953125 8.1853125 51.89453125 9.1953125 C48.01769038 10.38818661 44.97831202 11.1953125 40.89453125 11.1953125 C40.89453125 11.8553125 40.89453125 12.5153125 40.89453125 13.1953125 C35.32618593 16.04423336 35.32618593 16.04423336 32.39453125 17.0703125 C30.0471887 18.12661665 28.63291441 19.1602292 26.70703125 20.8203125 C23.89453125 23.1953125 23.89453125 23.1953125 21.89453125 23.1953125 C20.32823417 26.21502038 19.01827961 29.28181664 17.76953125 32.4453125 C17.41632812 33.33734375 17.063125 34.229375 16.69921875 35.1484375 C16.43367188 35.82390625 16.168125 36.499375 15.89453125 37.1953125 C15.23453125 36.8653125 14.57453125 36.5353125 13.89453125 36.1953125 C13.23453125 37.1853125 12.57453125 38.1753125 11.89453125 39.1953125 C10.90453125 39.1953125 9.91453125 39.1953125 8.89453125 39.1953125 C8.23453125 40.5153125 7.57453125 41.8353125 6.89453125 43.1953125 C6.56453125 42.5353125 6.23453125 41.8753125 5.89453125 41.1953125 C8.8020389 34.00531821 14.02743518 28.68449598 19.66674805 23.57080078 C23.39718711 20.09129348 25.15308098 17.00075774 26.89453125 12.1953125 C26.18167969 12.23011719 25.46882813 12.26492187 24.734375 12.30078125 C18.50305396 12.47690203 14.62682017 11.76495926 8.89453125 9.1953125 C5.49980549 8.59480144 2.10978262 8.13616566 -1.3125 7.72265625 C-4.10546875 7.1953125 -4.10546875 7.1953125 -6.10546875 5.1953125 C-5.77546875 4.5353125 -5.44546875 3.8753125 -5.10546875 3.1953125 C-6.42546875 3.5253125 -7.74546875 3.8553125 -9.10546875 4.1953125 C-7.04182642 0.06802784 -4.16737799 -0.04817778 0 0 Z " fill="#29DDFE" transform="translate(33.10546875,23.8046875)"/>
<path d="M0 0 C2.71496526 0.0754157 4.42419035 0.46632277 6.44140625 2.3359375 C10 6.49269943 10 6.49269943 10 9 C10.66 9 11.32 9 12 9 C12 10.32 12 11.64 12 13 C15.63 10.03 19.26 7.06 23 4 C23.495 4.99 23.495 4.99 24 6 C21.34812425 10.22335768 18.54233068 13.45766932 15 17 C14.505 18.485 14.505 18.485 14 20 C14.83144531 19.97679688 15.66289063 19.95359375 16.51953125 19.9296875 C17.60621094 19.91164063 18.69289062 19.89359375 19.8125 19.875 C20.89144531 19.85179688 21.97039062 19.82859375 23.08203125 19.8046875 C26 20 26 20 29 22 C29 22.66 29 23.32 29 24 C28.29875 24.185625 27.5975 24.37125 26.875 24.5625 C22.90359949 26.54820026 20.6926582 29.53933276 18 33 C14.27566618 31.7874262 10.62197194 30.49140021 7 29 C7.33 28.34 7.66 27.68 8 27 C8.99 27 9.98 27 11 27 C11 25.68 11 24.36 11 23 C12.65 22.67 14.3 22.34 16 22 C13.525 21.01 13.525 21.01 11 20 C11.66 18.35 12.32 16.7 13 15 C7.39 14.67 1.78 14.34 -4 14 C-4.53625 15.32 -5.0725 16.64 -5.625 18 C-6.95703125 20.21875 -6.95703125 20.21875 -9 22 C-13.73070169 22.7286245 -18.24920084 22.46286541 -23 22 C-23 21.67 -23 21.34 -23 21 C-21.7625 20.79375 -20.525 20.5875 -19.25 20.375 C-15.74704093 19.50389378 -15.10922619 19.13284266 -12.6875 16.1875 C-12.130625 15.135625 -11.57375 14.08375 -11 13 C-7.59533074 7.14396887 -7.59533074 7.14396887 -5 5 C-4.34 5 -3.68 5 -3 5 C-2.690625 4.360625 -2.38125 3.72125 -2.0625 3.0625 C-1 1 -1 1 0 0 Z " fill="#AEF8FF" transform="translate(101,7)"/>
<path d="M0 0 C0.33 0.66 0.66 1.32 1 2 C2.093125 1.938125 3.18625 1.87625 4.3125 1.8125 C9.79640423 1.78296371 14.80042462 3.39424878 20 5 C20 5.66 20 6.32 20 7 C20.99 7.33 21.98 7.66 23 8 C22.67 8.66 22.34 9.32 22 10 C23.3921875 9.6596875 23.3921875 9.6596875 24.8125 9.3125 C28 9 28 9 29.875 10.4375 C30.24625 10.953125 30.6175 11.46875 31 12 C30.505 10.02 30.505 10.02 30 8 C32.4375 8.75 32.4375 8.75 35 10 C35.8125 12.125 35.8125 12.125 36 14 C33.69 14.99 31.38 15.98 29 17 C29 16.34 29 15.68 29 15 C25.67254855 13.98561189 22.48401978 13.16565125 19 13 C15.97769298 15.10501871 15.97769298 15.10501871 14 18 C13.01 18.66 12.02 19.32 11 20 C10.27617533 22.05925139 10.27617533 22.05925139 10 24 C10.66 24 11.32 24 12 24 C12 25.32 12 26.64 12 28 C10.35 28.66 8.7 29.32 7 30 C6.71125 29.236875 6.4225 28.47375 6.125 27.6875 C5.03730987 24.84970692 5.03730987 24.84970692 3 22 C5.625 17.125 5.625 17.125 9 16 C9 15.01 9 14.02 9 13 C6.69 13.33 4.38 13.66 2 14 C2 15.32 2 16.64 2 18 C0.02 18 -1.96 18 -4 18 C-4 17.34 -4 16.68 -4 16 C-7.95199987 17.16763633 -10.7725527 18.46414855 -14 21 C-14.66 21 -15.32 21 -16 21 C-15.63543213 18.20086028 -15.12294737 17.12045351 -13.07421875 15.11328125 C-12.28660156 14.51902344 -11.49898438 13.92476562 -10.6875 13.3125 C-9.90761719 12.71050781 -9.12773438 12.10851562 -8.32421875 11.48828125 C-6.13892149 10.08895645 -4.53363598 9.43483455 -2 9 C-2 8.34 -2 7.68 -2 7 C2.95 5.515 2.95 5.515 8 4 C-0.58 3.34 -9.16 2.68 -18 2 C-18 1.67 -18 1.34 -18 1 C-12.06 0.67 -6.12 0.34 0 0 Z " fill="#A1EBFE" transform="translate(76,28)"/>
<path d="M0 0 C2.62785929 0.20085549 5.24383613 0.36964876 7.875 0.5 C12.64342412 0.73886355 17.2996569 1.11592293 22 2 C22 2.33 22 2.66 22 3 C20.02 3.33 18.04 3.66 16 4 C16.33 4.99 16.66 5.98 17 7 C17.89203125 7.10957031 18.7840625 7.21914063 19.703125 7.33203125 C20.87359375 7.49058594 22.0440625 7.64914063 23.25 7.8125 C24.99023438 8.03873047 24.99023438 8.03873047 26.765625 8.26953125 C30.04866439 9.01099063 31.44272858 9.93133272 34 12 C33.29915283 12.02505615 32.59830566 12.0501123 31.8762207 12.07592773 C28.68814512 12.19226545 25.50033758 12.31482044 22.3125 12.4375 C20.65831055 12.49647461 20.65831055 12.49647461 18.97070312 12.55664062 C17.90400391 12.59853516 16.83730469 12.64042969 15.73828125 12.68359375 C14.75899658 12.72025146 13.77971191 12.75690918 12.77075195 12.79467773 C9.99679072 12.94172468 9.99679072 12.94172468 7.30541992 13.54711914 C4.31762005 14.13404795 2.01134309 13.50189052 -1 13 C-4.67144008 12.9087211 -8.32651163 12.95520136 -12 13 C-12 9.04 -12 5.08 -12 1 C-4.3776 -1.15968 -4.3776 -1.15968 0 0 Z " fill="#18CAFE" transform="translate(12,23)"/>
<path d="M0 0 C0.33 0.66 0.66 1.32 1 2 C1.99 2.33 2.98 2.66 4 3 C5.32421875 4.890625 5.32421875 4.890625 6.6875 7.25 C8.88501372 10.73951927 10.71143767 12.73650278 14.3125 14.75 C17.90480132 16.77152318 17.90480132 16.77152318 18.9375 19.25 C18.958125 20.1575 18.97875 21.065 19 22 C19.17865365 23.60517595 19.36680573 25.20931233 19.5625 26.8125 C19.71048442 28.20810692 19.85704109 29.60386935 20 31 C19.34 31 18.68 31 18 31 C18.63228516 32.15628906 18.63228516 32.15628906 19.27734375 33.3359375 C19.82519531 34.33882812 20.37304688 35.34171875 20.9375 36.375 C21.48277344 37.37273437 22.02804688 38.37046875 22.58984375 39.3984375 C23.4149759 40.92070346 24.22564391 42.45128783 25 44 C18.51397844 41.11732375 14.51003551 36.48414233 10.4375 30.875 C9.7096228 29.87629883 9.7096228 29.87629883 8.96704102 28.85742188 C5.39885744 23.83369121 2.76137772 18.93249304 1 13 C0.77957031 12.34386719 0.55914062 11.68773438 0.33203125 11.01171875 C-0.75120381 7.61661288 -1.31407187 4.5594812 -1 1 C-0.67 0.67 -0.34 0.34 0 0 Z " fill="#EAF0F8" transform="translate(35,93)"/>
<path d="M0 0 C2.08071366 0.36924582 4.16431713 0.72244301 6.25 1.0625 C7.32765625 1.23910156 8.4053125 1.41570313 9.515625 1.59765625 C10.33546875 1.73042969 11.1553125 1.86320312 12 2 C12 2.33 12 2.66 12 3 C5.23298263 4.26317658 -1.12020294 5.12740365 -8 5 C-8.99 5.495 -8.99 5.495 -10 6 C-10.33 6.99 -10.66 7.98 -11 9 C0.22 9.33 11.44 9.66 23 10 C23 10.66 23 11.32 23 12 C22.11957031 12.06058594 21.23914062 12.12117188 20.33203125 12.18359375 C18.58986328 12.30927734 18.58986328 12.30927734 16.8125 12.4375 C15.08966797 12.55931641 15.08966797 12.55931641 13.33203125 12.68359375 C10.07898074 12.933073 10.07898074 12.933073 7.23828125 13.5625 C4.29063421 14.13865439 1.96966213 13.49494369 -1 13 C-4.67144008 12.9087211 -8.32651163 12.95520136 -12 13 C-12 9.04 -12 5.08 -12 1 C-4.15619694 -1.22241087 -4.15619694 -1.22241087 0 0 Z " fill="#12B1FE" transform="translate(12,23)"/>
<path d="M0 0 C3.04302358 -0.2535853 4.60646231 -0.24049526 7.25 1.375 C9 3 9 3 10 5 C10 3.68 10 2.36 10 1 C10.99 1.33 11.98 1.66 13 2 C13.6875 4.0625 13.6875 4.0625 14 6 C14.66 5.67 15.32 5.34 16 5 C16 4.34 16 3.68 16 3 C16.66 3 17.32 3 18 3 C18.66 4.32 19.32 5.64 20 7 C21.98 7 23.96 7 26 7 C25.67 8.65 25.34 10.3 25 12 C22.41603321 12.08112454 19.83462432 12.14054748 17.25 12.1875 C16.15558594 12.22520508 16.15558594 12.22520508 15.0390625 12.26367188 C11.76930099 12.30825953 9.40517115 12.21328109 6.484375 10.67578125 C5 9 5 9 5 6 C-0.94 6.495 -0.94 6.495 -7 7 C-6.67 6.34 -6.34 5.68 -6 5 C-5.01 5 -4.02 5 -3 5 C-2.67 4.01 -2.34 3.02 -2 2 C-1.34 2 -0.68 2 0 2 C0 1.34 0 0.68 0 0 Z " fill="#258DF1" transform="translate(83,66)"/>
<path d="M0 0 C2.75564971 0.07654583 4.44165334 0.45527156 6.44140625 2.40625 C7.67656183 3.89828979 8.84312275 5.44647913 10 7 C9.67 7.66 9.34 8.32 9 9 C5.18015204 9.77811718 2.73159669 10.24386556 -1 9 C-3.54251602 9.24431996 -3.54251602 9.24431996 -6 11 C-7.92665865 13.8768636 -9.49398865 16.88544036 -11 20 C-11.66 20 -12.32 20 -13 20 C-13 20.66 -13 21.32 -13 22 C-16.3 22 -19.6 22 -23 22 C-23 21.67 -23 21.34 -23 21 C-21.7625 20.79375 -20.525 20.5875 -19.25 20.375 C-15.74704093 19.50389378 -15.10922619 19.13284266 -12.6875 16.1875 C-12.130625 15.135625 -11.57375 14.08375 -11 13 C-7.59533074 7.14396887 -7.59533074 7.14396887 -5 5 C-4.34 5 -3.68 5 -3 5 C-2.690625 4.360625 -2.38125 3.72125 -2.0625 3.0625 C-1 1 -1 1 0 0 Z " fill="#94F1FF" transform="translate(101,7)"/>
<path d="M0 0 C0.763125 0.20625 1.52625 0.4125 2.3125 0.625 C2.89289662 3.6342303 3.36733093 6.55446796 3.3125 9.625 C1.4375 11.4375 1.4375 11.4375 -0.6875 12.625 C-1.48373822 14.71915804 -1.48373822 14.71915804 -1.6875 16.625 C-1.0275 16.625 -0.3675 16.625 0.3125 16.625 C0.3125 17.945 0.3125 19.265 0.3125 20.625 C-1.3375 21.285 -2.9875 21.945 -4.6875 22.625 C-4.97625 21.861875 -5.265 21.09875 -5.5625 20.3125 C-6.65019013 17.47470692 -6.65019013 17.47470692 -8.6875 14.625 C-6.0625 9.75 -6.0625 9.75 -2.6875 8.625 C-2.6875 7.635 -2.6875 6.645 -2.6875 5.625 C-3.3475 5.625 -4.0075 5.625 -4.6875 5.625 C-5.0175 4.305 -5.3475 2.985 -5.6875 1.625 C-2.6875 -0.375 -2.6875 -0.375 0 0 Z " fill="#64A8F7" transform="translate(87.6875,35.375)"/>
<path d="M0 0 C3.51448646 0.4354231 6.80282151 1.30080615 10.20703125 2.2734375 C9.87703125 2.9334375 9.54703125 3.5934375 9.20703125 4.2734375 C5.24703125 3.9434375 1.28703125 3.6134375 -2.79296875 3.2734375 C-2.79296875 4.2634375 -2.79296875 5.2534375 -2.79296875 6.2734375 C-4.79296875 7.9609375 -4.79296875 7.9609375 -6.79296875 9.2734375 C-4.31796875 9.7684375 -4.31796875 9.7684375 -1.79296875 10.2734375 C-1.46296875 11.5934375 -1.13296875 12.9134375 -0.79296875 14.2734375 C-2.77296875 14.6034375 -4.75296875 14.9334375 -6.79296875 15.2734375 C-6.79296875 14.6134375 -6.79296875 13.9534375 -6.79296875 13.2734375 C-11.07956108 12.55031934 -15.37087234 11.86865634 -19.66796875 11.2109375 C-21.39660156 10.94603516 -21.39660156 10.94603516 -23.16015625 10.67578125 C-24.02898437 10.54300781 -24.8978125 10.41023438 -25.79296875 10.2734375 C-25.79296875 9.9434375 -25.79296875 9.6134375 -25.79296875 9.2734375 C-20.84296875 9.2734375 -15.89296875 9.2734375 -10.79296875 9.2734375 C-10.13296875 7.6234375 -9.47296875 5.9734375 -8.79296875 4.2734375 C-6.725589 0.02382357 -4.61088039 -0.22241724 0 0 Z " fill="#CDFBFF" transform="translate(102.79296875,19.7265625)"/>
<path d="M0 0 C0 1.66666667 0 3.33333333 0 5 C1.65 5.66 3.3 6.32 5 7 C5 7.33 5 7.66 5 8 C2.36 8 -0.28 8 -3 8 C-3 8.66 -3 9.32 -3 10 C-3.804375 10.12375 -4.60875 10.2475 -5.4375 10.375 C-6.283125 10.58125 -7.12875 10.7875 -8 11 C-8.33 11.66 -8.66 12.32 -9 13 C-11.31 13 -13.62 13 -16 13 C-16 12.67 -16 12.34 -16 12 C-14.35 12 -12.7 12 -11 12 C-11.33 10.68 -11.66 9.36 -12 8 C-13.98 8 -15.96 8 -18 8 C-16.625 6 -16.625 6 -15 4 C-14.34 4 -13.68 4 -13 4 C-13 3.01 -13 2.02 -13 1 C-12.14535156 1.01160156 -11.29070312 1.02320312 -10.41015625 1.03515625 C-8.75306641 1.04869141 -8.75306641 1.04869141 -7.0625 1.0625 C-5.40927734 1.07990234 -5.40927734 1.07990234 -3.72265625 1.09765625 C-1.08552366 1.31262571 -1.08552366 1.31262571 0 0 Z " fill="#F3FEFF" transform="translate(113,22)"/>
<path d="M0 0 C0.495 1.98 0.495 1.98 1 4 C-25.11543909 6.29559441 -25.11543909 6.29559441 -34.64453125 5.875 C-37.2429429 6.01289249 -38.78324177 6.67717924 -41 8 C-41 6.68 -41 5.36 -41 4 C-35.555 3.505 -35.555 3.505 -30 3 C-30 2.34 -30 1.68 -30 1 C-29.37544922 1.00523682 -28.75089844 1.01047363 -28.10742188 1.01586914 C-25.23829176 1.03684076 -22.36917785 1.04972376 -19.5 1.0625 C-18.02660156 1.07506836 -18.02660156 1.07506836 -16.5234375 1.08789062 C-10.91325243 1.10659124 -5.54849101 0.838879 0 0 Z " fill="#24D3FE" transform="translate(179,30)"/>
<path d="M0 0 C0 3 0 3 -1 6 C-2 7 -3 8 -4 9 C-4.45234009 9.93803467 -4.45234009 9.93803467 -4.91381836 10.89501953 C-6.76603282 14.48454371 -9.71586043 17.05222536 -12.5625 19.875 C-13.18785645 20.49906738 -13.81321289 21.12313477 -14.45751953 21.76611328 C-18.9312421 26.14776026 -23.50208994 29.94560552 -29 33 C-27.30935414 28.71563036 -24.18644695 25.77624401 -21.0625 22.5 C-19.98914493 21.36622854 -18.91748211 20.23085221 -17.84765625 19.09375 C-17.34766113 18.56265625 -16.84766602 18.0315625 -16.33251953 17.484375 C-14.86430935 15.89936452 -14.86430935 15.89936452 -13.24609375 13.59375 C-12.83488281 13.0678125 -12.42367187 12.541875 -12 12 C-11.34 12 -10.68 12 -10 12 C-9.7525 11.4225 -9.505 10.845 -9.25 10.25 C-7.81700012 7.67060021 -6.21575324 5.93878408 -4 4 C-3.34 4 -2.68 4 -2 4 C-1.34 2.68 -0.68 1.36 0 0 Z " fill="#1076EE" transform="translate(79,48)"/>
<path d="M0 0 C2.38202314 0.69717751 4.39796142 1.54747857 6.5625 2.75 C3.98465154 5.39752004 1.64601902 7.69432065 -1.4375 9.75 C-1.7675 9.75 -2.0975 9.75 -2.4375 9.75 C-2.7675 11.07 -3.0975 12.39 -3.4375 13.75 C-4.7575 13.42 -6.0775 13.09 -7.4375 12.75 C-7.4375 12.09 -7.4375 11.43 -7.4375 10.75 C-8.7575 11.08 -10.0775 11.41 -11.4375 11.75 C-11.02174938 6.89957612 -9.02090022 4.90680495 -5.4375 1.75 C-2.4375 -0.25 -2.4375 -0.25 0 0 Z " fill="#DCEEFC" transform="translate(97.4375,40.25)"/>
<path d="M0 0 C19.305 0.495 19.305 0.495 39 1 C39 1.66 39 2.32 39 3 C39.99 3 40.98 3 42 3 C41.67 3.66 41.34 4.32 41 5 C33.20637112 5.09465946 25.60547697 5.05426943 17.8515625 4.22265625 C12.24538212 3.7849134 6.61907417 3.92617275 1 4 C0.67 2.68 0.34 1.36 0 0 Z " fill="#1ACFFF" transform="translate(138,23)"/>
<path d="M0 0 C6.43117581 9.64676371 5.33270912 21.90969605 5 33 C4.01 33.495 4.01 33.495 3 34 C2.95101562 33.21753906 2.90203125 32.43507812 2.8515625 31.62890625 C2.77679688 30.61699219 2.70203125 29.60507813 2.625 28.5625 C2.52058594 27.04849609 2.52058594 27.04849609 2.4140625 25.50390625 C2.27742187 24.67761719 2.14078125 23.85132812 2 23 C1.34 22.67 0.68 22.34 0 22 C-0.33 23.32 -0.66 24.64 -1 26 C-1.33 26 -1.66 26 -2 26 C-1.34 17.42 -0.68 8.84 0 0 Z " fill="#B5CEF1" transform="translate(142,66)"/>
<path d="M0 0 C0.91007812 0.10183594 1.82015625 0.20367187 2.7578125 0.30859375 C3.45648438 0.39238281 4.15515625 0.47617187 4.875 0.5625 C4.5625 2.5 4.5625 2.5 3.875 4.5625 C2.885 4.8925 1.895 5.2225 0.875 5.5625 C0.875 6.5525 0.875 7.5425 0.875 8.5625 C-1.105 8.5625 -3.085 8.5625 -5.125 8.5625 C-5.125 7.9025 -5.125 7.2425 -5.125 6.5625 C-9.07699987 7.73013633 -11.8975527 9.02664855 -15.125 11.5625 C-15.785 11.5625 -16.445 11.5625 -17.125 11.5625 C-16.76654938 8.7137609 -16.25145301 7.68202408 -14.12890625 5.67578125 C-13.32324219 5.08152344 -12.51757812 4.48726562 -11.6875 3.875 C-10.88441406 3.27300781 -10.08132812 2.67101563 -9.25390625 2.05078125 C-5.76060053 -0.39132788 -4.20340827 -0.48500865 0 0 Z " fill="#B5D5F5" transform="translate(77.125,37.4375)"/>
<path d="M0 0 C0.66 0.33 1.32 0.66 2 1 C0.54634731 2.17249353 -0.91307419 3.33783816 -2.375 4.5 C-3.18710937 5.1496875 -3.99921875 5.799375 -4.8359375 6.46875 C-7 8 -7 8 -9 8 C-10.56629708 11.01970788 -11.87625164 14.08650414 -13.125 17.25 C-13.47820313 18.14203125 -13.83140625 19.0340625 -14.1953125 19.953125 C-14.46085937 20.62859375 -14.72640625 21.3040625 -15 22 C-15.66 21.67 -16.32 21.34 -17 21 C-17.66 21.99 -18.32 22.98 -19 24 C-19.99 24 -20.98 24 -22 24 C-22.66 25.32 -23.32 26.64 -24 28 C-24.33 27.34 -24.66 26.68 -25 26 C-22.40531118 19.5835774 -17.86552111 14.47827918 -13.0625 9.625 C-12.57305908 9.12564941 -12.08361816 8.62629883 -11.5793457 8.11181641 C-8.03545533 4.64909274 -4.46147139 2.17973211 0 0 Z " fill="#9CBDEE" transform="translate(64,39)"/>
<path d="M0 0 C9.31227684 -0.30476542 18.52654298 0.20710054 27.8125 0.875 C29.5756958 0.99270752 29.5756958 0.99270752 31.37451172 1.11279297 C33.02410889 1.23871826 33.02410889 1.23871826 34.70703125 1.3671875 C36.19940308 1.47716064 36.19940308 1.47716064 37.72192383 1.58935547 C38.47368896 1.72486816 39.2254541 1.86038086 40 2 C40.495 2.99 40.495 2.99 41 4 C37.12315913 5.19287411 34.08378077 6 30 6 C30 6.66 30 7.32 30 8 C29.01 8.33 28.02 8.66 27 9 C27 8.34 27 7.68 27 7 C27.66 7 28.32 7 29 7 C29 6.01 29 5.02 29 4 C23.29937224 3.10811561 17.63228588 2.68875917 11.87304688 2.39453125 C7.8521667 2.17050527 3.95851157 1.74106301 0 1 C0 0.67 0 0.34 0 0 Z " fill="#4FEDFE" transform="translate(44,29)"/>
<path d="M0 0 C0.66 0.33 1.32 0.66 2 1 C-2.98465083 5.25772258 -8.04659438 8.16646524 -14 10.8125 C-14.66386719 11.11422119 -15.32773438 11.41594238 -16.01171875 11.72680664 C-22.23480262 14.40355797 -28.21190417 15.168564 -35 15.0625 C-35.763125 15.05347656 -36.52625 15.04445312 -37.3125 15.03515625 C-38.1478125 15.01775391 -38.1478125 15.01775391 -39 15 C-39 14.67 -39 14.34 -39 14 C-37.83082031 13.81824219 -36.66164063 13.63648438 -35.45703125 13.44921875 C-33.90876352 13.19586585 -32.3605913 12.94192874 -30.8125 12.6875 C-30.04357422 12.56955078 -29.27464844 12.45160156 -28.48242188 12.33007812 C-24.07440218 11.59225509 -20.65018268 10.75712828 -17 8 C-16.67 7.34 -16.34 6.68 -16 6 C-12.5 5.5 -12.5 5.5 -9 5 C-8.67 4.34 -8.34 3.68 -8 3 C-6.01751285 2.28293018 -4.01584651 1.61709587 -2 1 C-1.34 0.67 -0.68 0.34 0 0 Z " fill="#8CA9E3" transform="translate(126,132)"/>
<path d="M0 0 C5.625 -0.25 5.625 -0.25 9 2 C9 2.66 9 3.32 9 4 C7.948125 4.2784375 7.948125 4.2784375 6.875 4.5625 C2.90359949 6.54820026 0.6926582 9.53933276 -2 13 C-4.475 12.01 -4.475 12.01 -7 11 C-3.25 5.25 -3.25 5.25 -1 3 C-0.01 3 0.98 3 2 3 C2 2.34 2 1.68 2 1 C1.34 0.67 0.68 0.34 0 0 Z " fill="#8CF5FF" transform="translate(121,27)"/>
<path d="M0 0 C0.91058531 3.07322544 1.08886184 5.80097361 1 9 C1.66 9 2.32 9 3 9 C3 10.32 3 11.64 3 13 C1.35 13.66 -0.3 14.32 -2 15 C-2.28875 14.236875 -2.5775 13.47375 -2.875 12.6875 C-3.96269013 9.84970692 -3.96269013 9.84970692 -6 7 C-4.19587357 3.73539027 -3.16605307 2.11070205 0 0 Z " fill="#45A1F6" transform="translate(85,43)"/>
<path d="M0 0 C0.33 1.32 0.66 2.64 1 4 C-3.10334171 4.36419665 -7.2077437 4.7146393 -11.3125 5.0625 C-12.47974609 5.16626953 -13.64699219 5.27003906 -14.84960938 5.37695312 C-16.52700195 5.51713867 -16.52700195 5.51713867 -18.23828125 5.66015625 C-19.7857605 5.79369507 -19.7857605 5.79369507 -21.36450195 5.92993164 C-24 6 -24 6 -27 5 C-23.46163384 2.64108923 -21.639717 2.68451008 -17.4375 2.5 C-11.46281383 2.15876663 -5.81764858 1.38068618 0 0 Z " fill="#0EBDFE" transform="translate(179,30)"/>
<path d="M0 0 C5.28 0 10.56 0 16 0 C15.01 0.495 15.01 0.495 14 1 C13.773125 1.66 13.54625 2.32 13.3125 3 C12.6628125 3.99 12.6628125 3.99 12 5 C8.625 5.625 8.625 5.625 5 6 C2.66411677 6.95584438 2.66411677 6.95584438 1 8 C1.66 5.69 2.32 3.38 3 1 C2.01 0.67 1.02 0.34 0 0 Z " fill="#27A8F9" transform="translate(57,35)"/>
<path d="M0 0 C1.2065625 0.0309375 1.2065625 0.0309375 2.4375 0.0625 C-1.97093437 5.35262124 -6.63809794 10.25058428 -11.5625 15.0625 C-11.8925 14.0725 -12.2225 13.0825 -12.5625 12.0625 C-10.7265625 9.3984375 -10.7265625 9.3984375 -8.1875 6.4375 C-7.35476562 5.45523437 -6.52203125 4.47296875 -5.6640625 3.4609375 C-2.68898157 0.06558492 -2.68898157 0.06558492 0 0 Z " fill="#29C7FE" transform="translate(143.5625,-0.0625)"/>
<path d="M0 0 C0.66 0 1.32 0 2 0 C2 1.32 2 2.64 2 4 C1.01 4.33 0.02 4.66 -1 5 C-0.34 5.66 0.32 6.32 1 7 C-0.32 7.33 -1.64 7.66 -3 8 C-3 8.66 -3 9.32 -3 10 C-2.34 10.33 -1.68 10.66 -1 11 C-2.9375 10.625 -2.9375 10.625 -5 10 C-5.33 9.34 -5.66 8.68 -6 8 C-7.98 8 -9.96 8 -12 8 C-11.67 7.01 -11.34 6.02 -11 5 C-9.35 5 -7.7 5 -6 5 C-5.67 4.01 -5.34 3.02 -5 2 C-3.35 2 -1.7 2 0 2 C0 1.34 0 0.68 0 0 Z " fill="#D4F4FE" transform="translate(110,30)"/>
<path d="M0 0 C2.4375 0.75 2.4375 0.75 5 2 C5.8125 4.125 5.8125 4.125 6 6 C2.535 7.485 2.535 7.485 -1 9 C-1 8.34 -1 7.68 -1 7 C-3.31 6.34 -5.62 5.68 -8 5 C-8 4.34 -8 3.68 -8 3 C-1.25 2.875 -1.25 2.875 1 4 C0.67 2.68 0.34 1.36 0 0 Z " fill="#9DCFFB" transform="translate(106,36)"/>
<path d="M0 0 C0.33 0.66 0.66 1.32 1 2 C0.01 3.485 0.01 3.485 -1 5 C-1 6.32 -1 7.64 -1 9 C-2.8125 9.625 -2.8125 9.625 -5 10 C-5.99 9.34 -6.98 8.68 -8 8 C-7.42415568 5.61435923 -6.77772405 3.33317216 -6 1 C-4.02 0.67 -2.04 0.34 0 0 Z " fill="#39C0FD" transform="translate(136,40)"/>
<path d="M0 0 C-0.99 0.66 -1.98 1.32 -3 2 C-3.70125 2.53625 -4.4025 3.0725 -5.125 3.625 C-9.11209566 5.53187184 -12.65524366 5.2555739 -17 5 C-16.67 4.01 -16.34 3.02 -16 2 C-10.63636982 -0.12310361 -5.71642118 -0.23332331 0 0 Z " fill="#D4EAFB" transform="translate(90,33)"/>
<path d="M0 0 C0 2 0 4 0 6 C-0.99 6 -1.98 6 -3 6 C-3 5.34 -3 4.68 -3 4 C-6.41656024 3.83322718 -6.41656024 3.83322718 -10 4 C-10.66 4.66 -11.32 5.32 -12 6 C-14.125 5.625 -14.125 5.625 -16 5 C-15.01 4.67 -14.02 4.34 -13 4 C-13 3.01 -13 2.02 -13 1 C-12.14535156 1.01160156 -11.29070312 1.02320312 -10.41015625 1.03515625 C-8.75306641 1.04869141 -8.75306641 1.04869141 -7.0625 1.0625 C-5.40927734 1.07990234 -5.40927734 1.07990234 -3.72265625 1.09765625 C-1.08552366 1.31262571 -1.08552366 1.31262571 0 0 Z " fill="#E2FDFF" transform="translate(113,22)"/>
<path d="M0 0 C0.66 0.33 1.32 0.66 2 1 C-0.475 5.455 -0.475 5.455 -3 10 C-3.66 10 -4.32 10 -5 10 C-5 10.66 -5 11.32 -5 12 C-8.3 12 -11.6 12 -15 12 C-15 11.67 -15 11.34 -15 11 C-13.2365625 10.7834375 -13.2365625 10.7834375 -11.4375 10.5625 C-5.6601817 9.19283274 -3.11577215 4.73207895 0 0 Z " fill="#99F6FF" transform="translate(93,17)"/>
<path d="M0 0 C2.48020497 0.11341491 4.95844969 0.24014686 7.4375 0.375 C8.14455078 0.4059375 8.85160156 0.436875 9.58007812 0.46875 C11.39239188 0.57280629 13.19817988 0.77919892 15 1 C15.33 1.66 15.66 2.32 16 3 C12.12315913 4.19287411 9.08378077 5 5 5 C5 5.66 5 6.32 5 7 C4.01 7.33 3.02 7.66 2 8 C2 7.34 2 6.68 2 6 C2.66 6 3.32 6 4 6 C4 5.34 4 4.68 4 4 C4.66 4 5.32 4 6 4 C6 3.34 6 2.68 6 2 C3.03 1.505 3.03 1.505 0 1 C0 0.67 0 0.34 0 0 Z " fill="#6AEEFF" transform="translate(69,30)"/>
<path d="M0 0 C0 3 0 3 -1 6 C-2 7 -3 8 -4 9 C-4.268125 9.61875 -4.53625 10.2375 -4.8125 10.875 C-6.58718026 14.05074362 -9.14466595 15.76539075 -12 18 C-10.62121957 13.97855708 -8.68257366 11.26938665 -6 8 C-5.29114106 6.68861096 -4.60543548 5.36222983 -4 4 C-3.34 4 -2.68 4 -2 4 C-1.34 2.68 -0.68 1.36 0 0 Z " fill="#2783F0" transform="translate(79,48)"/>
<path d="M0 0 C-0.3125 1.9375 -0.3125 1.9375 -1 4 C-1.99 4.33 -2.98 4.66 -4 5 C-4 5.99 -4 6.98 -4 8 C-5.98 8 -7.96 8 -10 8 C-10 7.34 -10 6.68 -10 6 C-10.66 5.67 -11.32 5.34 -12 5 C-10.37750059 4.16180842 -8.75191503 3.3295884 -7.125 2.5 C-6.22007813 2.0359375 -5.31515625 1.571875 -4.3828125 1.09375 C-2 0 -2 0 0 0 Z " fill="#6298EF" transform="translate(82,38)"/>
<path d="M0 0 C0.886875 0.103125 1.77375 0.20625 2.6875 0.3125 C0.6875 2.3125 0.6875 2.3125 -2.3125 3.3125 C-3.89808381 4.94752936 -3.89808381 4.94752936 -5.375 6.875 C-6.91015625 8.81640625 -6.91015625 8.81640625 -8.3125 10.3125 C-8.9725 10.3125 -9.6325 10.3125 -10.3125 10.3125 C-8.60190472 4.86969683 -5.99830401 0.56587774 0 0 Z " fill="#79EFFE" transform="translate(127.3125,29.6875)"/>
<path d="M0 0 C2.70931419 0.15481795 4.46584039 0.48172081 6.4453125 2.40234375 C7.67679642 3.89771708 8.8429837 5.4462924 10 7 C9.67 7.66 9.34 8.32 9 9 C8.34 8.67 7.68 8.34 7 8 C7 7.34 7 6.68 7 6 C6.34 6 5.68 6 5 6 C5 5.34 5 4.68 5 4 C2.36 4 -0.28 4 -3 4 C-2.01 2.68 -1.02 1.36 0 0 Z " fill="#81EAFF" transform="translate(101,7)"/>
<path d="M0 0 C0 3.96849614 -0.82914215 5.64503787 -3 9 C-5.86312482 11.23871994 -8.87343437 13.15159013 -12 15 C-10.38462556 11.10082032 -7.72075127 8.28706228 -4.875 5.25 C-4.40707031 4.74339844 -3.93914063 4.23679687 -3.45703125 3.71484375 C-2.30873459 2.47280859 -1.15491328 1.23588506 0 0 Z " fill="#0B5FE7" transform="translate(62,66)"/>
<path d="M0 0 C0.33 0.66 0.66 1.32 1 2 C-1.56428003 6.17882671 -4.01930733 9.12505529 -8 12 C-8.25 9.73828125 -8.25 9.73828125 -8 7 C-6.25 4.98046875 -6.25 4.98046875 -4 3.1875 C-3.2575 2.58292969 -2.515 1.97835938 -1.75 1.35546875 C-1.1725 0.90816406 -0.595 0.46085938 0 0 Z " fill="#89F5FF" transform="translate(124,11)"/>
<path d="M0 0 C0.8353125 0.37125 0.8353125 0.37125 1.6875 0.75 C1.6875 1.41 1.6875 2.07 1.6875 2.75 C-4.9375 6.625 -4.9375 6.625 -8.3125 7.75 C-7.98035849 4.65001254 -7.2579988 3.6954988 -5 1.4375 C-2.3125 -0.25 -2.3125 -0.25 0 0 Z " fill="#99C2F1" transform="translate(68.3125,41.25)"/>
<path d="M0 0 C0.66 0.33 1.32 0.66 2 1 C0.75627811 1.98712878 -0.49527218 2.96439905 -1.75 3.9375 C-2.44609375 4.48277344 -3.1421875 5.02804688 -3.859375 5.58984375 C-5.96092128 6.97425654 -7.54321799 7.56286987 -10 8 C-10.33 7.34 -10.66 6.68 -11 6 C-8.46023329 2.89584069 -5.77812602 2.12539924 -2 1 C-1.34 0.67 -0.68 0.34 0 0 Z " fill="#95B1E5" transform="translate(126,132)"/>
<path d="M0 0 C0.33 0.66 0.66 1.32 1 2 C0.24172908 3.17487036 -0.53207755 4.33972592 -1.3125 5.5 C-1.74175781 6.1496875 -2.17101562 6.799375 -2.61328125 7.46875 C-3.07089844 7.9740625 -3.52851562 8.479375 -4 9 C-4.99 9 -5.98 9 -7 9 C-6.07506212 5.21616321 -5.60628829 3.43306306 -2.375 1.125 C-1.199375 0.568125 -1.199375 0.568125 0 0 Z " fill="#D3DEF5" transform="translate(116,118)"/>
<path d="M0 0 C0.33 0.66 0.66 1.32 1 2 C-3.62 2.33 -8.24 2.66 -13 3 C-13.33 2.34 -13.66 1.68 -14 1 C-9.32798795 -0.20568053 -4.78503708 -0.09382426 0 0 Z " fill="#14D0FF" transform="translate(168,31)"/>
<path d="M0 0 C5.52677733 -0.19392201 9.75614911 0.2520497 15 2 C15 2.66 15 3.32 15 4 C13.68 4.33 12.36 4.66 11 5 C11 4.34 11 3.68 11 3 C10.113125 2.855625 9.22625 2.71125 8.3125 2.5625 C5.52882354 2.08980022 2.76516243 1.56929815 0 1 C0 0.67 0 0.34 0 0 Z " fill="#BAF7FF" transform="translate(85,30)"/>
<path d="M0 0 C4 0 4 0 6.25 1.8125 C8 4 8 4 8 7 C6 8.6875 6 8.6875 4 10 C3.54427083 7.98177083 3.08854167 5.96354167 2.6328125 3.9453125 C2.09525572 1.79280036 2.09525572 1.79280036 0 0 Z " fill="#8CCCFC" transform="translate(87,34)"/>
<path d="M0 0 C3 1 3 1 4.421875 3.1796875 C4.86015625 4.06914063 5.2984375 4.95859375 5.75 5.875 C6.19859375 6.75929688 6.6471875 7.64359375 7.109375 8.5546875 C8 11 8 11 7 14 C4.0222241 11.50003341 3.05451517 8.95288929 1.8125 5.3125 C1.46832031 4.31863281 1.12414062 3.32476562 0.76953125 2.30078125 C0.51558594 1.54152344 0.26164062 0.78226562 0 0 Z " fill="#2A83ED" transform="translate(107,81)"/>
<path d="M0 0 C0.66 0.33 1.32 0.66 2 1 C0.54634731 2.17249353 -0.91307419 3.33783816 -2.375 4.5 C-3.18710937 5.1496875 -3.99921875 5.799375 -4.8359375 6.46875 C-7 8 -7 8 -9 8 C-9.33 8.99 -9.66 9.98 -10 11 C-10.33 10.01 -10.66 9.02 -11 8 C-4.06451613 2.03225806 -4.06451613 2.03225806 0 0 Z " fill="#80B0EE" transform="translate(64,39)"/>
<path d="M0 0 C0.99 0.33 1.98 0.66 3 1 C2.34 1 1.68 1 1 1 C1.309375 1.8971875 1.309375 1.8971875 1.625 2.8125 C2 5 2 5 0 8 C0.66 8.33 1.32 8.66 2 9 C1.34 9 0.68 9 0 9 C-0.33 9.66 -0.66 10.32 -1 11 C-1 9.68 -1 8.36 -1 7 C-1.99 6.67 -2.98 6.34 -4 6 C-3.34 5.01 -2.68 4.02 -2 3 C-1.34 3 -0.68 3 0 3 C0 2.01 0 1.02 0 0 Z " fill="#A4D3F9" transform="translate(78,51)"/>
<path d="M0 0 C2.475 0.495 2.475 0.495 5 1 C5.33 3.97 5.66 6.94 6 10 C5.01 10.66 4.02 11.32 3 12 C3.33 8.7 3.66 5.4 4 2 C2.68 1.34 1.36 0.68 0 0 Z " fill="#72BBFA" transform="translate(85,35)"/>
<path d="M0 0 C0.99 0.33 1.98 0.66 3 1 C4.1875 4.0625 4.1875 4.0625 5 7 C2.50907189 8.24546405 1.58919267 7.7767578 -1 7 C-0.67 4.69 -0.34 2.38 0 0 Z " fill="#E0EFFC" transform="translate(79,52)"/>
<path d="M0 0 C3.63 0 7.26 0 11 0 C10.01 0.495 10.01 0.495 9 1 C7.86649466 3.01669827 7.86649466 3.01669827 7 5 C6.01 4.34 5.02 3.68 4 3 C4.33 2.34 4.66 1.68 5 1 C3.35 1 1.7 1 0 1 C0 0.67 0 0.34 0 0 Z " fill="#45B3F7" transform="translate(62,35)"/>
<path d="M0 0 C2.4375 0.75 2.4375 0.75 5 2 C5.8125 4.125 5.8125 4.125 6 6 C4.35 6.66 2.7 7.32 1 8 C1 6.68 1 5.36 1 4 C0.7018576 2.65835921 0.37756808 1.32148827 0 0 Z " fill="#ABD5FB" transform="translate(106,36)"/>
<path d="M0 0 C0.97608217 2.92824652 1.08226668 4.95613276 1 8 C0.01 7.67 -0.98 7.34 -2 7 C-2 5.02 -2 3.04 -2 1 C-1.34 0.67 -0.68 0.34 0 0 Z " fill="#6E92E3" transform="translate(139,94)"/>
<path d="M0 0 C0.66 0.33 1.32 0.66 2 1 C-0.31 3.31 -2.62 5.62 -5 8 C-5.33 7.34 -5.66 6.68 -6 6 C-4 4 -2 2 0 0 Z " fill="#158AF2" transform="translate(73,58)"/>
<path d="M0 0 C3.3 0.33 6.6 0.66 10 1 C10 1.66 10 2.32 10 3 C7.69 3 5.38 3 3 3 C3 2.34 3 1.68 3 1 C2.01 0.67 1.02 0.34 0 0 Z " fill="#27BEFC" transform="translate(57,35)"/>
<path d="M0 0 C2.97 0.495 2.97 0.495 6 1 C3 3 3 3 -1 3 C-1 3.66 -1 4.32 -1 5 C-1.99 5.33 -2.98 5.66 -4 6 C-4 5.34 -4 4.68 -4 4 C-3.34 4 -2.68 4 -2 4 C-2 3.34 -2 2.68 -2 2 C-1.34 2 -0.68 2 0 2 C0 1.34 0 0.68 0 0 Z " fill="#68D0FA" transform="translate(75,32)"/>
<path d="M0 0 C-3.4352048 2.29013653 -4.985331 2.17842973 -9 2 C-9 1.34 -9 0.68 -9 0 C-5.62182575 -0.84454356 -3.32534757 -1.10844919 0 0 Z " fill="#0FA4FE" transform="translate(12,23)"/>
</svg>
