<?xml version="1.0" encoding="UTF-8"?>
<svg version="1.1" xmlns="http://www.w3.org/2000/svg" width="48" height="48">
<path d="M0 0 C15.84 0 31.68 0 48 0 C48 15.84 48 31.68 48 48 C32.16 48 16.32 48 0 48 C0 32.16 0 16.32 0 0 Z " fill="#0480FD" transform="translate(0,0)"/>
<path d="M0 0 C2.97 0.33 5.94 0.66 9 1 C9 3.64 9 6.28 9 9 C9.99 9.33 10.98 9.66 12 10 C14.31940842 13.77977668 15.39168975 16.56084956 15 21 C14.01 21 13.02 21 12 21 C8.04300761 24.14950674 8.04300761 24.14950674 6.6875 28.8125 C6.790625 29.534375 6.89375 30.25625 7 31 C4.69 31.33 2.38 31.66 0 32 C-0.33 29.36 -0.66 26.72 -1 24 C-2.65 24 -4.3 24 -6 24 C-7.71050559 19.02398374 -6.00885647 15.57383705 -4 11 C-3.34 11 -2.68 11 -2 11 C-1.34 10.01 -0.68 9.02 0 8 C-1.98 8 -3.96 8 -6 8 C-5 6 -5 6 -2 5 C-0.78130071 2.49552484 -0.78130071 2.49552484 0 0 Z " fill="#D8EAFA" transform="translate(24,3)"/>
<path d="M0 0 C4.80549747 -0.02468447 9.61095818 -0.04285255 14.41650391 -0.05493164 C16.05192711 -0.05996621 17.6873458 -0.06679427 19.32275391 -0.07543945 C21.67090975 -0.08754335 24.01900619 -0.093237 26.3671875 -0.09765625 C27.10057343 -0.10281754 27.83395935 -0.10797882 28.58956909 -0.11329651 C33.77225659 -0.11387171 33.77225659 -0.11387171 36 1 C36 2.65 36 4.3 36 6 C36.99 6 37.98 6 39 6 C38.34 8.97 37.68 11.94 37 15 C35 14 35 14 33 12 C32.63066355 9.24627091 32.81663322 6.79634339 33 4 C30.03 4 27.06 4 24 4 C23.690625 4.804375 23.38125 5.60875 23.0625 6.4375 C22 9 22 9 21 10 C22.32 10.33 23.64 10.66 25 11 C24.01 12.32 23.02 13.64 22 15 C21.34 14.34 20.68 13.68 20 13 C17.46048456 13.09111938 17.46048456 13.09111938 15 14 C14.01 15.485 14.01 15.485 13 17 C12.34 17 11.68 17 11 17 C10.72594237 21.01987181 10.72594237 21.01987181 11 25 C12.29233607 26.37310707 13.62437146 27.71034824 15 29 C15.25 32.25 15.25 32.25 15 35 C9.04134813 29.19413408 9.04134813 29.19413408 8.90234375 25.1796875 C8.91394531 24.08914062 8.92554688 22.99859375 8.9375 21.875 C8.94652344 20.77929688 8.95554687 19.68359375 8.96484375 18.5546875 C8.97644531 17.71164063 8.98804688 16.86859375 9 16 C9.66 16 10.32 16 11 16 C10.67 15.01 10.34 14.02 10 13 C10.33 12.34 10.66 11.68 11 11 C10.37351562 10.93941406 9.74703125 10.87882813 9.1015625 10.81640625 C8.28429688 10.73261719 7.46703125 10.64882812 6.625 10.5625 C5.40683594 10.44068359 5.40683594 10.44068359 4.1640625 10.31640625 C2 10 2 10 0 9 C0 6.03 0 3.06 0 0 Z " fill="#14A9FD" transform="translate(0,0)"/>
<path d="M0 0 C1.65 0 3.3 0 5 0 C6 2 6 2 5.44140625 3.8046875 C5.15136719 4.48789062 4.86132812 5.17109375 4.5625 5.875 C3.23097684 9.01572278 3 10.40056026 3 14 C4.65 14.33 6.3 14.66 8 15 C8.33 17.64 8.66 20.28 9 23 C9.78375 22.649375 10.5675 22.29875 11.375 21.9375 C12.674375 21.4734375 12.674375 21.4734375 14 21 C14.66 21.33 15.32 21.66 16 22 C15.731875 21.29875 15.46375 20.5975 15.1875 19.875 C14.96999265 16.53988725 15.36830612 16.13449613 17.4375 13.6875 C18.283125 12.800625 19.12875 11.91375 20 11 C21.92417491 13.16469677 22.92718989 14.63594943 23.5 17.5 C23 20 23 20 21.0625 22.125 C15.88049627 25.29765534 10.17480794 27.59756206 4 27 C4 26.34 4 25.68 4 25 C2.68 24.34 1.36 23.68 0 23 C0 21.02 0 19.04 0 17 C-0.639375 16.71125 -1.27875 16.4225 -1.9375 16.125 C-4 15 -4 15 -5 13 C-5.43250474 9.10745733 -5.35320193 7.50131886 -3.0625 4.25 C-2.381875 3.5075 -1.70125 2.765 -1 2 C-0.67 1.34 -0.34 0.68 0 0 Z " fill="#0D42DA" transform="translate(15,12)"/>
<path d="M0 0 C0.33 0.99 0.66 1.98 1 3 C1.721875 3.103125 2.44375 3.20625 3.1875 3.3125 C6.24491993 4.05986932 8.38329635 5.28045189 11 7 C10.67 7.99 10.34 8.98 10 10 C10.33 10.639375 10.66 11.27875 11 11.9375 C12.22739216 14.46899634 11.86761468 15.39715596 11 18 C11 18.66 11 19.32 11 20 C8.69 20.33 6.38 20.66 4 21 C3.67 18.36 3.34 15.72 3 13 C1.35 13 -0.3 13 -2 13 C-3.71050559 8.02398374 -2.00885647 4.57383705 0 0 Z " fill="#EAF0F7" transform="translate(20,14)"/>
<path d="M0 0 C0.69802734 0.00386719 1.39605469 0.00773437 2.11523438 0.01171875 C2.80939453 0.00785156 3.50355469 0.00398438 4.21875 0 C9.42445449 0.01007881 9.42445449 0.01007881 11.67773438 1.13671875 C11.67773438 2.78671875 11.67773438 4.43671875 11.67773438 6.13671875 C12.66773437 6.13671875 13.65773438 6.13671875 14.67773438 6.13671875 C14.01773438 9.10671875 13.35773437 12.07671875 12.67773438 15.13671875 C10.67773438 14.13671875 10.67773438 14.13671875 8.67773438 12.13671875 C8.30839793 9.38298966 8.4943676 6.93306214 8.67773438 4.13671875 C5.70773438 4.13671875 2.73773437 4.13671875 -0.32226562 4.13671875 C-0.56976563 4.94109375 -0.81726562 5.74546875 -1.07226562 6.57421875 C-2.32226562 9.13671875 -2.32226562 9.13671875 -3.94726562 10.01171875 C-7.49339146 10.19835695 -10.81104696 9.66340155 -14.32226562 9.13671875 C-12.32226562 6.13671875 -12.32226562 6.13671875 -9.69726562 5.44921875 C-8.91351562 5.34609375 -8.12976563 5.24296875 -7.32226562 5.13671875 C-7.17789062 4.49734375 -7.03351562 3.85796875 -6.88476562 3.19921875 C-5.80018645 -0.77757158 -3.78417486 0.00734079 0 0 Z " fill="#62E6FE" transform="translate(24.322265625,-0.13671875)"/>
<path d="M0 0 C4.62 0 9.24 0 14 0 C14 3.63 14 7.26 14 11 C11.69 11.33 9.38 11.66 7 12 C6.34 14.31 5.68 16.62 5 19 C2.67463937 15.51195905 2.66542102 14.09859246 3 10 C4 7.625 4 7.625 5 6 C4.01 6 3.02 6 2 6 C2 4.35 2 2.7 2 1 C1.34 0.67 0.68 0.34 0 0 Z " fill="#0FA7FD" transform="translate(34,0)"/>
<path d="M0 0 C1.92417491 2.16469677 2.92718989 3.63594943 3.5 6.5 C3 9 3 9 1.0625 11.125 C-4.11950373 14.29765534 -9.82519206 16.59756206 -16 16 C-16 15.34 -16 14.68 -16 14 C-17.32 13.34 -18.64 12.68 -20 12 C-19.67 11.01 -19.34 10.02 -19 9 C-17.948125 9.7115625 -17.948125 9.7115625 -16.875 10.4375 C-13.83918663 12.08739857 -11.40831214 12.60368464 -8 13 C-7.67 12.01 -7.34 11.02 -7 10 C-6.01 10.33 -5.02 10.66 -4 11 C-4.4021875 9.948125 -4.4021875 9.948125 -4.8125 8.875 C-5.03000735 5.53988725 -4.63169388 5.13449613 -2.5625 2.6875 C-1.716875 1.800625 -0.87125 0.91375 0 0 Z " fill="#0A31D1" transform="translate(35,23)"/>
<path d="M0 0 C7.59 0.33 15.18 0.66 23 1 C22.34 2.65 21.68 4.3 21 6 C20.01 5.34 19.02 4.68 18 4 C15.41666667 4.08333333 15.41666667 4.08333333 13 5 C12.01 6.485 12.01 6.485 11 8 C10.34 8 9.68 8 9 8 C8.72594237 12.01987181 8.72594237 12.01987181 9 16 C10.29233607 17.37310707 11.62437146 18.71034824 13 20 C13.25 23.25 13.25 23.25 13 26 C7.04134813 20.19413408 7.04134813 20.19413408 6.90234375 16.1796875 C6.91394531 15.08914062 6.92554688 13.99859375 6.9375 12.875 C6.94652344 11.77929688 6.95554687 10.68359375 6.96484375 9.5546875 C6.97644531 8.71164063 6.98804688 7.86859375 7 7 C7.66 7 8.32 7 9 7 C8.67 6.01 8.34 5.02 8 4 C8.33 3.34 8.66 2.68 9 2 C6.03 1.67 3.06 1.34 0 1 C0 0.67 0 0.34 0 0 Z " fill="#399DF3" transform="translate(2,9)"/>
<path d="M0 0 C2.64 0.99 5.28 1.98 8 3 C8.33 5.64 8.66 8.28 9 11 C8.01 11 7.02 11 6 11 C3.82967524 12.43990623 3.82967524 12.43990623 2 14 C1.93941406 13.40832031 1.87882812 12.81664062 1.81640625 12.20703125 C1.37987629 8.09021792 0.91328654 4.04455467 0 0 Z " fill="#C3DCF6" transform="translate(30,13)"/>
<path d="M0 0 C1.65 0 3.3 0 5 0 C4.34 1.32 3.68 2.64 3 4 C5.31 4 7.62 4 10 4 C9.01 4.495 9.01 4.495 8 5 C8 5.66 8 6.32 8 7 C8.66 7 9.32 7 10 7 C10 7.99 10 8.98 10 10 C9.01 10 8.02 10 7 10 C6.34 12.97 5.68 15.94 5 19 C2.67463937 15.51195905 2.66542102 14.09859246 3 10 C4 7.625 4 7.625 5 6 C4.01 6 3.02 6 2 6 C2 4.35 2 2.7 2 1 C1.34 0.67 0.68 0.34 0 0 Z " fill="#23CFFE" transform="translate(34,0)"/>
<path d="M0 0 C2.97 0.33 5.94 0.66 9 1 C9 3.31 9 5.62 9 8 C8.34 7.67 7.68 7.34 7 7 C7 5.68 7 4.36 7 3 C5.68 3.33 4.36 3.66 3 4 C3.33 5.32 3.66 6.64 4 8 C0.7 8 -2.6 8 -6 8 C-5 6 -5 6 -2 5 C-0.78130071 2.49552484 -0.78130071 2.49552484 0 0 Z " fill="#98F4FE" transform="translate(24,3)"/>
<path d="M0 0 C0.33 0.66 0.66 1.32 1 2 C-1.31 2.66 -3.62 3.32 -6 4 C-3.69 4.33 -1.38 4.66 1 5 C1 5.33 1 5.66 1 6 C-4.77759884 6.12036664 -10.27959989 5.8320582 -16 5 C-16 4.01 -16 3.02 -16 2 C-10.54538831 0.61470179 -5.63281599 -0.2396943 0 0 Z " fill="#1AC1FD" transform="translate(17,4)"/>
<path d="M0 0 C1.65 0 3.3 0 5 0 C6 2 6 2 5.546875 3.91015625 C5.28390625 4.62042969 5.0209375 5.33070312 4.75 6.0625 C4.37101562 7.13177734 4.37101562 7.13177734 3.984375 8.22265625 C3 10 3 10 0 11 C0.33 8.36 0.66 5.72 1 3 C0.34 2.67 -0.32 2.34 -1 2 C-0.67 1.34 -0.34 0.68 0 0 Z " fill="#1369E9" transform="translate(15,12)"/>
<path d="M0 0 C0.66 0.33 1.32 0.66 2 1 C2 2.65 2 4.3 2 6 C1.34 6 0.68 6 0 6 C-0.33 7.32 -0.66 8.64 -1 10 C-3.64 9.67 -6.28 9.34 -9 9 C-7 6 -7 6 -4.375 5.3125 C-3.59125 5.209375 -2.8075 5.10625 -2 5 C-1.855625 4.360625 -1.71125 3.72125 -1.5625 3.0625 C-1 1 -1 1 0 0 Z " fill="#2EE5FF" transform="translate(19,0)"/>
<path d="M0 0 C2.97 0.495 2.97 0.495 6 1 C6 2.65 6 4.3 6 6 C6.99 6 7.98 6 9 6 C8.34 8.97 7.68 11.94 7 15 C5.4375 13.5625 5.4375 13.5625 4 11 C4.03153676 7.94619073 4.46733371 5.00346778 5 2 C3.35 1.67 1.7 1.34 0 1 C0 0.67 0 0.34 0 0 Z " fill="#45D9FE" transform="translate(30,0)"/>
<path d="M0 0 C2 1 4 2 6 3 C6 4.65 6 6.3 6 8 C4.33333333 8 2.66666667 8 1 8 C0.67 5.36 0.34 2.72 0 0 Z " fill="#A5C8F0" transform="translate(33,16)"/>
<path d="M0 0 C0.66 1.32 1.32 2.64 2 4 C0.02 6.97 0.02 6.97 -2 10 C-2.99 9.67 -3.98 9.34 -5 9 C-4.42647107 5.12867972 -2.51295648 2.91827204 0 0 Z " fill="#114DDD" transform="translate(35,23)"/>
<path d="M0 0 C1.32 0 2.64 0 4 0 C4.309375 0.78375 4.61875 1.5675 4.9375 2.375 C5.92875038 4.92330128 5.92875038 4.92330128 7 7 C4.03 6.67 1.06 6.34 -2 6 C-1.34 5.34 -0.68 4.68 0 4 C0 2.68 0 1.36 0 0 Z " fill="#E5F9FE" transform="translate(27,6)"/>
<path d="M0 0 C2.97 0.495 2.97 0.495 6 1 C6.33 2.98 6.66 4.96 7 7 C6.34 7 5.68 7 5 7 C5 6.34 5 5.68 5 5 C3.35 4.67 1.7 4.34 0 4 C0 2.68 0 1.36 0 0 Z " fill="#1D62E3" transform="translate(17,26)"/>
<path d="M0 0 C1.98 0 3.96 0 6 0 C6 1.65 6 3.3 6 5 C4.1875 5.625 4.1875 5.625 2 6 C1.01 5.34 0.02 4.68 -1 4 C-0.01 4 0.98 4 2 4 C2 3.01 2 2.02 2 1 C1.34 0.67 0.68 0.34 0 0 Z " fill="#0FBDFE" transform="translate(42,6)"/>
<path d="M0 0 C2.5 1.125 2.5 1.125 5 3 C5.3125 6.1875 5.3125 6.1875 5 9 C2.5 6.75 2.5 6.75 0 4 C0 2.68 0 1.36 0 0 Z " fill="#DEE6F6" transform="translate(10,26)"/>
<path d="M0 0 C0.33 0.99 0.66 1.98 1 3 C2.1446875 3.1546875 2.1446875 3.1546875 3.3125 3.3125 C6.17059424 4.04364039 7.15742885 4.76951913 9 7 C7.35 7 5.7 7 4 7 C4 6.34 4 5.68 4 5 C2.35 5.33 0.7 5.66 -1 6 C-0.67 4.02 -0.34 2.04 0 0 Z " fill="#8AC1F6" transform="translate(20,14)"/>
<path d="M0 0 C1.65 0 3.3 0 5 0 C4.67 0.66 4.34 1.32 4 2 C6.31 2.33 8.62 2.66 11 3 C11 3.33 11 3.66 11 4 C9.58376784 4.05447047 8.16691809 4.09300508 6.75 4.125 C5.96109375 4.14820313 5.1721875 4.17140625 4.359375 4.1953125 C1.79268059 3.9828378 0.2083933 3.28654105 -2 2 C-1.34 2 -0.68 2 0 2 C0 1.34 0 0.68 0 0 Z " fill="#1FCFFE" transform="translate(7,6)"/>
<path d="M0 0 C2.01822917 0.06510417 4.03645833 0.13020833 6.0546875 0.1953125 C5.3946875 1.8453125 4.7346875 3.4953125 4.0546875 5.1953125 C3.0646875 4.5353125 2.0746875 3.8753125 1.0546875 3.1953125 C-0.60080781 2.81031359 -2.2675558 2.46738115 -3.9453125 2.1953125 C-1.9453125 0.1953125 -1.9453125 0.1953125 0 0 Z " fill="#6AA5F2" transform="translate(18.9453125,9.8046875)"/>
<path d="M0 0 C0.66 1.32 1.32 2.64 2 4 C-1.3 4 -4.6 4 -8 4 C-6.4425489 0.88509781 -3.40085499 0 0 0 Z " fill="#BBE7FC" transform="translate(26,7)"/>
<path d="M0 0 C0.66 0.33 1.32 0.66 2 1 C2 2.65 2 4.3 2 6 C1.34 6 0.68 6 0 6 C-0.33 7.32 -0.66 8.64 -1 10 C-1.9765625 3.9453125 -1.9765625 3.9453125 -2 2 C-1.34 1.34 -0.68 0.68 0 0 Z " fill="#3AD4FD" transform="translate(19,0)"/>
<path d="M0 0 C0.33 0 0.66 0 1 0 C1.25 6.625 1.25 6.625 -1 10 C-1.66 8.02 -2.32 6.04 -3 4 C-2.34 4 -1.68 4 -1 4 C-0.67 2.68 -0.34 1.36 0 0 Z " fill="#507EE5" transform="translate(39,20)"/>
<path d="M0 0 C2.375 0.25 2.375 0.25 5 1 C6.3125 3.0625 6.3125 3.0625 7 5 C4.69 4.34 2.38 3.68 0 3 C0 2.01 0 1.02 0 0 Z " fill="#EDF5FC" transform="translate(21,14)"/>
<path d="M0 0 C1.32 0.33 2.64 0.66 4 1 C3.34 3.31 2.68 5.62 2 8 C-0.1519437 4.77208445 -0.20086443 3.71599191 0 0 Z " fill="#24A9FB" transform="translate(37,11)"/>
</svg>
