<?xml version="1.0" encoding="UTF-8"?>
<svg version="1.1" xmlns="http://www.w3.org/2000/svg" width="16" height="16">
<path d="M0 0 C5.28 0 10.56 0 16 0 C16 5.28 16 10.56 16 16 C10.72 16 5.44 16 0 16 C0 10.72 0 5.44 0 0 Z " fill="#037AFC" transform="translate(0,0)"/>
<path d="M0 0 C2.31 0 4.62 0 7 0 C7 2.97 7 5.94 7 9 C6.34 9 5.68 9 5 9 C3.37485532 10.45833358 3.37485532 10.45833358 2 12 C2 11.01 2 10.02 2 9 C1.34 9 0.68 9 0 9 C-1.125 3.375 -1.125 3.375 0 0 Z " fill="#DAEAF8" transform="translate(6,0)"/>
<path d="M0 0 C0 1.65 0 3.3 0 5 C0.66 5 1.32 5 2 5 C2.33 5.66 2.66 6.32 3 7 C3.66 6.34 4.32 5.68 5 5 C5.33 5.99 5.66 6.98 6 8 C5 9 5 9 2.125 9.3125 C-1 9 -1 9 -2.9375 7.25 C-4 5 -4 5 -3.8125 2.8125 C-2.94575948 0.87900191 -2.26328491 0 0 0 Z " fill="#3D69DF" transform="translate(6,4)"/>
<path d="M0 0 C1.98 0 3.96 0 6 0 C5.67 1.65 5.34 3.3 5 5 C4.34 5 3.68 5 3 5 C2.67 5.99 2.34 6.98 2 8 C-0.1519437 4.77208445 -0.20086443 3.71599191 0 0 Z " fill="#17A8FC" transform="translate(0,0)"/>
<path d="M0 0 C2.31 0 4.62 0 7 0 C7 1.32 7 2.64 7 4 C6.34 4 5.68 4 5 4 C5 3.34 5 2.68 5 2 C4.01 2 3.02 2 2 2 C1.67 3.32 1.34 4.64 1 6 C0.34 5.01 -0.32 4.02 -1 3 C-0.67 2.01 -0.34 1.02 0 0 Z " fill="#6ADBFC" transform="translate(6,0)"/>
<path d="M0 0 C0.99 0 1.98 0 3 0 C3 1.98 3 3.96 3 6 C2.01 6.33 1.02 6.66 0 7 C-1.04449911 3.86650268 -0.93423645 3.01031744 0 0 Z " fill="#11ADFE" transform="translate(13,0)"/>
<path d="M0 0 C-0.33 2.64 -0.66 5.28 -1 8 C-2.5625 6.75 -2.5625 6.75 -4 5 C-3.8125 2.875 -3.8125 2.875 -3 1 C-1 0 -1 0 0 0 Z " fill="#4E7DE7" transform="translate(6,4)"/>
</svg>
