<?xml version="1.0" encoding="UTF-8"?>
<svg version="1.1" xmlns="http://www.w3.org/2000/svg" width="32" height="32">
<path d="M0 0 C10.56 0 21.12 0 32 0 C32 10.56 32 21.12 32 32 C21.44 32 10.88 32 0 32 C0 21.44 0 10.88 0 0 Z " fill="#047FFD" transform="translate(0,0)"/>
<path d="M0 0 C1.125 1.9375 1.125 1.9375 2 4 C2.66 4.66 3.32 5.32 4 6 C3.625 9.625 3.625 9.625 3 13 C2.34 12.34 1.68 11.68 1 11 C0.731875 11.763125 0.46375 12.52625 0.1875 13.3125 C-0.95134505 15.88988618 -1.81416671 17.26954864 -4 19 C-4.66 19 -5.32 19 -6 19 C-6.33 17.02 -6.66 15.04 -7 13 C-8.32 12.67 -9.64 12.34 -11 12 C-10 9 -9 6 -8 3 C-9.32 2.67 -10.64 2.34 -12 2 C-10.75579353 1.4654744 -9.50429064 0.94791389 -8.25 0.4375 C-7.55390625 0.14746094 -6.8578125 -0.14257812 -6.140625 -0.44140625 C-3.66383165 -1.08772276 -2.36713167 -0.93250641 0 0 Z " fill="#D6ECFC" transform="translate(22,5)"/>
<path d="M0 0 C6.27 0 12.54 0 19 0 C19 1.98 19 3.96 19 6 C16 7 13 8 10 9 C9.34 7.68 8.68 6.36 8 5 C4.7 5.66 1.4 6.32 -2 7 C-2.33 6.01 -2.66 5.02 -3 4 C-2.01 4 -1.02 4 0 4 C0 2.68 0 1.36 0 0 Z " fill="#56E2FE" transform="translate(13,0)"/>
<path d="M0 0 C0.66 0.33 1.32 0.66 2 1 C1.34 2.65 0.68 4.3 0 6 C0.804375 6.37125 1.60875 6.7425 2.4375 7.125 C5 9 5 9 5.8125 12.1875 C5.874375 13.115625 5.93625 14.04375 6 15 C9.48832306 12.79072873 10.73058503 10.91402949 12 7 C12.99 7 13.98 7 15 7 C15.66 6.34 16.32 5.68 17 5 C16.91342255 10.28122466 16.91342255 10.28122466 16 13 C11.96224212 15.45432342 7.73334676 16.78484787 3 17 C1.125 15.8125 1.125 15.8125 0 14 C0 12.68 0 11.36 0 10 C-0.66 10 -1.32 10 -2 10 C-2.66 8.35 -3.32 6.7 -4 5 C-2.68 3.35 -1.36 1.7 0 0 Z " fill="#1C59DF" transform="translate(10,9)"/>
<path d="M0 0 C4.29 0 8.58 0 13 0 C13 1.32 13 2.64 13 4 C12.01 4 11.02 4 10 4 C10.33 4.99 10.66 5.98 11 7 C9.35 8.32 7.7 9.64 6 11 C6.33 9.68 6.66 8.36 7 7 C4.69 7 2.38 7 0 7 C0 4.69 0 2.38 0 0 Z " fill="#11A5FD" transform="translate(0,0)"/>
<path d="M0 0 C1.32 0 2.64 0 4 0 C4 0.66 4 1.32 4 2 C4.66 2.33 5.32 2.66 6 3 C4.68 3 3.36 3 2 3 C3.65 3.33 5.3 3.66 7 4 C7 6.64 7 9.28 7 12 C5.35 12.66 3.7 13.32 2 14 C1.67 12.02 1.34 10.04 1 8 C-0.32 7.67 -1.64 7.34 -3 7 C-1.125 1.125 -1.125 1.125 0 0 Z " fill="#E4EDF7" transform="translate(14,10)"/>
<path d="M0 0 C1.98 0.66 3.96 1.32 6 2 C5.67 4.31 5.34 6.62 5 9 C4.34 8.34 3.68 7.68 3 7 C2.34 7.66 1.68 8.32 1 9 C1 7.68 1 6.36 1 5 C-0.65 5 -2.3 5 -4 5 C-4.33 4.34 -4.66 3.68 -5 3 C-2.525 3.495 -2.525 3.495 0 4 C0 2.68 0 1.36 0 0 Z " fill="#C0DBF7" transform="translate(20,9)"/>
<path d="M0 0 C0.96349722 2.60144251 1.0123938 3.94670665 0.375 6.6875 C-1 9 -1 9 -3.625 9.8125 C-4.800625 9.9053125 -4.800625 9.9053125 -6 10 C-6.25 7.75 -6.25 7.75 -6 5 C-4 2.6875 -4 2.6875 -2 1 C-1.67 1.33 -1.34 1.66 -1 2 C-0.67 1.34 -0.34 0.68 0 0 Z " fill="#1E54DE" transform="translate(26,14)"/>
<path d="M0 0 C0 1.65 0 3.3 0 5 C-1.65 5.66 -3.3 6.32 -5 7 C-6.5 5.625 -6.5 5.625 -8 4 C-8 3.34 -8 2.68 -8 2 C-4.77208445 -0.1519437 -3.71599191 -0.20086443 0 0 Z " fill="#0EA0FD" transform="translate(32,6)"/>
<path d="M0 0 C2.31 0 4.62 0 7 0 C7 1.65 7 3.3 7 5 C4.69 4.67 2.38 4.34 0 4 C0 2.68 0 1.36 0 0 Z " fill="#12B0FE" transform="translate(25,0)"/>
<path d="M0 0 C-1.65 2.64 -3.3 5.28 -5 8 C-5.66 7.67 -6.32 7.34 -7 7 C-6.34 5.35 -5.68 3.7 -5 2 C-6.98 2.99 -6.98 2.99 -9 4 C-8.3125 2.0625 -8.3125 2.0625 -7 0 C-4.12060581 -0.93580311 -2.74490212 -1.37245106 0 0 Z " fill="#3B81EC" transform="translate(16,8)"/>
<path d="M0 0 C0.99 0 1.98 0 3 0 C3 1.32 3 2.64 3 4 C2.01 4 1.02 4 0 4 C0 4.66 0 5.32 0 6 C-2.64 6 -5.28 6 -8 6 C-5.4345406 3.4345406 -3.52313332 3.45953913 0 3 C0 2.01 0 1.02 0 0 Z " fill="#25D1FD" transform="translate(10,0)"/>
<path d="M0 0 C2.97 0.495 2.97 0.495 6 1 C6 1.66 6 2.32 6 3 C7.32 2.67 8.64 2.34 10 2 C9.67 2.66 9.34 3.32 9 4 C6.125 4.8125 6.125 4.8125 3 5 C1.125 3.6875 1.125 3.6875 0 2 C0 1.34 0 0.68 0 0 Z " fill="#0932D1" transform="translate(10,21)"/>
<path d="M0 0 C0.99 0 1.98 0 3 0 C3 1.32 3 2.64 3 4 C5.31 4.33 7.62 4.66 10 5 C10 5.33 10 5.66 10 6 C5.5 7.5 5.5 7.5 1 9 C1.33 6.36 1.66 3.72 2 1 C1.34 0.67 0.68 0.34 0 0 Z " fill="#34D8FE" transform="translate(22,0)"/>
<path d="M0 0 C1.98 0 3.96 0 6 0 C6 0.99 6 1.98 6 3 C3.29120665 4.35439668 0.99066732 4.06501451 -2 4 C-1.34 3.67 -0.68 3.34 0 3 C0 2.01 0 1.02 0 0 Z " fill="#16B1FD" transform="translate(4,0)"/>
<path d="M0 0 C0.66 0.33 1.32 0.66 2 1 C1.67 1.94875 1.34 2.8975 1 3.875 C-0.10159191 6.77062452 -0.10159191 6.77062452 0 9 C-0.99 8.67 -1.98 8.34 -3 8 C-3.33 7.01 -3.66 6.02 -4 5 C-2.0625 2.3125 -2.0625 2.3125 0 0 Z " fill="#0942DC" transform="translate(10,9)"/>
<path d="M0 0 C2.31 0 4.62 0 7 0 C7.625 1.875 7.625 1.875 8 4 C7.34 4.66 6.68 5.32 6 6 C5.67 5.01 5.34 4.02 5 3 C3.35 3 1.7 3 0 3 C0 2.01 0 1.02 0 0 Z " fill="#8DF1FE" transform="translate(16,2)"/>
<path d="M0 0 C0.66 1.32 1.32 2.64 2 4 C2.66 4 3.32 4 4 4 C4 5.65 4 7.3 4 9 C1.47740939 7.02579865 1.0070192 6.03254358 0.3125 2.8125 C0.209375 1.884375 0.10625 0.95625 0 0 Z " fill="#BDCBF1" transform="translate(6,15)"/>
<path d="M0 0 C1.32 0 2.64 0 4 0 C3.67 2.31 3.34 4.62 3 7 C1.25372522 4.38058783 0.61277612 2.96175123 0 0 Z " fill="#A0C4F0" transform="translate(22,11)"/>
</svg>
